<?xml version="1.0" encoding="utf-8"?>
<!-- Generator: Adobe Illustrator 19.0.0, SVG Export Plug-In . SVG Version: 6.00 Build 0)  -->
<svg version="1.1" id="Calque_1" xmlns="http://www.w3.org/2000/svg" xmlns:xlink="http://www.w3.org/1999/xlink" x="0px" y="0px"
	 viewBox="385 -182 800 395" style="enable-background:new 385 -182 800 395;" xml:space="preserve">
<style type="text/css">
	.st0{fill:#E05206;}
	.st1{opacity:0.5;}
	.st2{fill:none;stroke:#595959;stroke-width:0.3302;stroke-miterlimit:10;}
	.st3{opacity:0.5;fill:none;stroke:#595959;stroke-width:0.3302;stroke-miterlimit:10;enable-background:new    ;}
	.st4{fill:none;stroke:#F2F2F2;stroke-width:0.3302;stroke-miterlimit:10;}
	.st5{opacity:0.6;}
	.st6{fill:#FFFFFF;}
	.st7{clip-path:url(#SVGID_3_);}
	.st8{fill:#0DB02B;}
	.st9{fill:none;stroke:#595959;stroke-width:0.8255;stroke-miterlimit:10;}
	.st10{fill:none;stroke:#000000;stroke-width:0.3302;stroke-miterlimit:10;}
	.st11{fill:none;stroke:#000000;stroke-width:0.3302;stroke-miterlimit:10;stroke-dasharray:1.6654,1.6654;}
	.st12{fill:none;stroke:#000000;stroke-width:0.3302;stroke-miterlimit:10;stroke-dasharray:1.6677,1.6677;}
	.st13{fill:none;stroke:#E05206;stroke-width:0.3302;stroke-miterlimit:10;}
	.st14{fill:none;stroke:#E05206;stroke-width:0.3302;stroke-miterlimit:10;stroke-dasharray:1.6481,1.6481;}
	.st15{fill:none;stroke:#E05206;stroke-width:0.3302;stroke-miterlimit:10;stroke-dasharray:1.643,1.643;}
	.st16{fill:none;stroke:#E05206;stroke-width:0.3302;stroke-miterlimit:10;stroke-dasharray:1.6656,1.6656;}
	.st17{fill:none;stroke:#E05206;stroke-width:0.3302;stroke-miterlimit:10;stroke-dasharray:1.6454,1.6454;}
	.st18{fill:none;stroke:#E05206;stroke-width:0.3302;stroke-miterlimit:10;stroke-dasharray:1.6168,1.6168;}
	.st19{fill:none;stroke:#E05206;stroke-width:0.3302;stroke-miterlimit:10;stroke-dasharray:1.6357,1.6357;}
	.st20{fill:none;stroke:#E05206;stroke-width:0.3302;stroke-miterlimit:10;stroke-dasharray:1.6198,1.6198;}
	.st21{fill:none;stroke:#E05206;stroke-width:0.3302;stroke-miterlimit:10;stroke-dasharray:1.6692,1.6692;}
	.st22{fill:none;stroke:#E05206;stroke-width:0.3302;stroke-miterlimit:10;stroke-dasharray:1.6661,1.6661;}
	.st23{fill:none;stroke:#E05206;stroke-width:0.3302;stroke-miterlimit:10;stroke-dasharray:1.6945,1.6945;}
	.st24{fill:none;stroke:#E05206;stroke-width:0.3302;stroke-miterlimit:10;stroke-dasharray:1.653,1.653;}
	.st25{fill:none;stroke:#E05206;stroke-width:0.3302;stroke-miterlimit:10;stroke-dasharray:1.6396,1.6396;}
</style>
<rect x="632.8" y="-151.6" class="st0" width="50.6" height="13.1"/>
<rect x="883.6" y="-171.2" class="st0" width="83.4" height="13.1"/>
<rect x="991.1" y="-89.9" class="st0" width="46.9" height="13.1"/>
<g class="st1">
	<path class="st2" d="M678.4,202.2c3.7-2.7-0.3-1.6,1.7-3.6c1.2-1.2,7.6-1,6.7-6.6c-0.4-2.4-2.9-2.6-0.8-5.3
		c1.3-1.7,3.5,0.4,4.3-3.3c0.6-2.6-1-2.4-1.8-4.4c-0.2-0.5,0-1.1,0-1.6c0-1.1,0-2.1,0-3.2c0-0.5,0.1-1.1,0-1.6
		c-0.6-1.9-4.4-4.1-4.6-6.4"/>
</g>
<path class="st3" d="M659.4,159.9c-3.6,4.6-6.1,4.1-10.9,4.8c-1,0.2-1.9,1.1-2.9,1c-1.6-0.2-2.1-2.8-4.1-1.1
	c-1.1,0.9-0.9,3.2-2.7,3.3c-0.8,0-1.5-0.6-2.2-0.4c-1,0.3,0.2,1.9-0.1,2.3l-1.6,0.6c-0.1,0.2,0,0.3,0.1,0.5c0.2,0.5,0.7,1,0.6,1.3
	c0,0.1-0.1,0.1-0.1,0.2l-2.2-1l-0.2,1"/>
<path class="st3" d="M623.5,101.4c-2.9-0.7-6.3,1-9.2,0.6c-3.9-0.5-13.5-5.2-17.3-4c-1.9,0.7-2.7,4.6-4.5,5.5
	c-2.8,1.3-4.6-5.5-6.4-6.3c-0.8-0.4-3.4,0.2-4.4,0.2c-8.8,0.5-7.1,5.3-9.6,6.1c-2.5,0.9-3.8-3.4-5.2-4.8c-0.1-0.1-0.4,0-0.5,0.1
	c-0.3,0.4-0.5,0.8-0.7,1.2c-0.7,1.2-1.4,2.4-2.1,3.6c-0.2,0.4-0.5,0.8-0.7,1.2c-0.2,0.4-0.3,1.1-0.7,1.2l-2.2-1.3
	c-2.8-0.6-0.2,0.6-2.4,1.3c-0.6,0.2-1.1-0.9-1.7-2.4"/>
<path class="st2" d="M700.2,16.9c-0.1,0-0.2,0-0.3,0C700,16.9,700.1,16.9,700.2,16.9"/>
<path class="st3" d="M662.6-16.6c1.4,1.1,4.2,0.7,5.4,2.5c0.2,0.2,0,0.6-0.1,0.8c0,0.3-0.2,0.6-0.1,0.8c0.8,1.8,3.2,3.5,4.3,4.4
	c1.9,1.7,4.7-1.4,5.7-0.8c1.8,1,1.9,3.8,3.4,4.7c2.7,1.8,13.1,2,14.9,5c0.7,1.2-1.1,4.2-0.7,5.6c0.2,0.8,1.1,2,0.7,3.3
	c-0.2,0.6-0.6,1.1-1,1.6c-1.3,1.4-3,2.3-0.9,4l2.6,2c0.3,0.1,0.8,0.1,1.2,0.1c0.1,0,0.1,0,0.2,0c0.5,0,1,0,1.6-0.1
	c0.1,0,0.2,0,0.3,0"/>
<path class="st3" d="M812-118.7c0.7,4.8,9.1,11.4,10.6,16.4c0.1,0.5,0,1,0,1.6c0,0.5,0,1,0,1.6c0,1.6-0.1,3.1-0.1,4.7
	c0,0.5-0.3,1.1,0,1.6c0.4,0.8,2.5,0.9,3,1.7c0.5,0.9,0,2.1,0.5,2.9c2.3,4.3,5.5,0.8,8.6,0.8c1.3,0,14.5,4.6,15.4,5.5
	c3.8,3.4,3.1,12.2,7,15.4"/>
<path class="st4" d="M929.6-66L929.6-66L929.6-66z"/>
<path class="st4" d="M930.7-66.4c-0.1,0-0.1,0-0.2,0.1C930.6-66.4,930.7-66.4,930.7-66.4z"/>
<path class="st4" d="M912.5-57.1c5.8-3.3,13.5-7.5,17.2-8.9l0,0c0.3-0.1,0.6-0.2,0.9-0.3c0.1,0,0.1,0,0.2-0.1
	c0.3-0.1,0.5-0.1,0.6-0.1c2.5-0.1,27.2,13.4,31.3,15.5c25.5,13-15.7-8.5,9.6,4.8"/>
<path class="st3" d="M962.7-51C937.4-64.4,988.2-38,962.7-51c-4.2-2.1-28.8-15.6-31.3-15.5c-0.2,0-0.4,0.1-0.6,0.1
	c-0.1,0-0.1,0-0.2,0.1c-0.3,0.1-0.6,0.2-0.9,0.3l0,0c-3.7,1.5-11.3,5.7-17.2,8.9"/>
<path class="st3" d="M881.4,128.9c2.5,3.9,16,24.6,17.6,28.9"/>
<g class="st5">
	<path d="M887.4-78.5h0.8v7.2h3.5v0.7h-4.2L887.4-78.5L887.4-78.5z"/>
	<path d="M893.2-78.5h0.8v7.9h-0.8V-78.5z"/>
	<path d="M901.6-78c0.4,0.3,0.7,0.8,0.7,1.4c0,0.5-0.1,0.9-0.4,1.2c-0.3,0.3-0.6,0.5-1.1,0.6c0.6,0.1,1,0.3,1.4,0.6
		c0.3,0.4,0.5,0.8,0.5,1.3c0,0.7-0.3,1.2-0.8,1.6s-1.2,0.6-2.1,0.6h-3.3v-7.9h3.3C900.5-78.5,901.1-78.3,901.6-78z M901-75.4
		c0.3-0.2,0.5-0.6,0.5-1s-0.2-0.8-0.5-1s-0.7-0.4-1.3-0.3h-2.5v2.8h2.5C900.3-75,900.7-75.2,901-75.4z M901.3-71.7
		c0.4-0.3,0.6-0.6,0.6-1.1s-0.2-0.8-0.6-1.1c-0.4-0.3-0.9-0.4-1.6-0.4h-2.5v3h2.5C900.4-71.3,900.9-71.5,901.3-71.7z"/>
	<path d="M910.2-78.5l-3,5.1v2.8h-0.8v-2.8l-3.1-5.1h0.8l2.7,4.2l2.6-4.2H910.2z"/>
	<path d="M911.5-78.5h5.3v0.7h-4.5v2.8h4v0.7h-4v3h4.6v0.7h-5.4L911.5-78.5L911.5-78.5z"/>
</g>
<g class="st5">
	<path d="M928,62.8h6v0.7h-2.6v7.2h-0.8v-7.2H928V62.8z"/>
	<path d="M939.5,63.7c-0.4-0.2-0.8-0.3-1.3-0.3c-0.6,0-1.2,0.1-1.7,0.4s-0.9,0.7-1.2,1.2s-0.4,1.1-0.4,1.7c0,0.6,0.1,1.2,0.4,1.7
		c0.3,0.5,0.7,0.9,1.2,1.2s1.1,0.4,1.7,0.4c0.4,0,0.9-0.1,1.3-0.3c0.4-0.2,0.8-0.4,1.1-0.7l0.5,0.5c-0.4,0.4-0.8,0.6-1.3,0.9
		c-0.5,0.2-1,0.3-1.5,0.3c-0.7,0-1.4-0.2-2-0.5c-0.6-0.4-1.1-0.8-1.5-1.5s-0.5-1.3-0.5-2s0.2-1.4,0.6-2c0.4-0.6,0.9-1.1,1.5-1.4
		c0.6-0.4,1.3-0.5,2.1-0.5c0.5,0,1,0.1,1.5,0.3s0.9,0.5,1.3,0.8l-0.5,0.5C940.2,64.1,939.9,63.9,939.5,63.7z"/>
	<path d="M942.7,62.8h0.8v3.6h4.9v-3.6h0.8v7.9h-0.8v-3.6h-4.9v3.6h-0.8V62.8z"/>
	<path d="M957.6,70.7l-0.9-2.1h-4.4l-0.9,2.1h-0.8l3.5-7.9h0.8l3.5,7.9H957.6z M952.6,67.9h3.8l-1.9-4.3L952.6,67.9z"/>
	<path d="M964.9,63.3c0.6,0.3,1.1,0.8,1.5,1.4c0.4,0.6,0.5,1.3,0.5,2s-0.2,1.4-0.5,2s-0.8,1.1-1.5,1.4c-0.6,0.3-1.3,0.5-2.1,0.5
		h-3.1v-7.9h3.2C963.6,62.8,964.3,63,964.9,63.3z M964.5,69.6c0.5-0.3,0.9-0.7,1.2-1.2s0.4-1,0.4-1.6s-0.1-1.1-0.4-1.6
		c-0.3-0.5-0.7-0.9-1.2-1.2s-1-0.4-1.6-0.4h-2.4v6.5h2.4C963.5,70,964,69.9,964.5,69.6z"/>
</g>
<g class="st5">
	<path d="M787.3,162.2h0.8v7.9h-0.8l-4.9-6.7v6.7h-0.8v-7.9h0.8l4.9,6.7V162.2z"/>
	<path d="M790.6,162.2h0.8v7.9h-0.8V162.2z"/>
	<path d="M799.4,166.2h0.7v2.9c-0.4,0.3-0.8,0.6-1.3,0.8c-0.5,0.2-1,0.3-1.5,0.3c-0.7,0-1.4-0.2-2.1-0.5c-0.6-0.4-1.1-0.8-1.5-1.5
		c-0.4-0.6-0.6-1.3-0.6-2s0.2-1.4,0.6-2s0.9-1.1,1.5-1.4c0.6-0.4,1.3-0.5,2.1-0.5c0.5,0,1,0.1,1.5,0.3s0.9,0.4,1.3,0.8l-0.5,0.6
		c-0.3-0.3-0.7-0.5-1.1-0.7s-0.9-0.2-1.3-0.2c-0.6,0-1.2,0.1-1.7,0.4s-0.9,0.7-1.2,1.2s-0.5,1.1-0.5,1.7s0.2,1.2,0.5,1.7
		s0.7,0.9,1.2,1.2c0.5,0.3,1.1,0.4,1.7,0.4c0.4,0,0.7-0.1,1.1-0.2c0.4-0.1,0.7-0.3,1-0.5L799.4,166.2L799.4,166.2z"/>
	<path d="M802.3,162.2h5.3v0.7h-4.5v2.8h4v0.7h-4v3h4.6v0.7h-5.4V162.2z"/>
	<path d="M814.8,170.1l-1.7-2.6c-0.2,0-0.4,0-0.6,0h-2.2v2.5h-0.8v-7.9h2.9c1,0,1.7,0.2,2.3,0.7c0.5,0.5,0.8,1.1,0.8,1.9
		c0,0.7-0.2,1.2-0.5,1.6s-0.8,0.7-1.4,0.9l1.9,2.7h-0.7L814.8,170.1L814.8,170.1z M812.6,166.8c0.8,0,1.3-0.2,1.7-0.5
		c0.4-0.3,0.6-0.8,0.6-1.5c0-0.6-0.2-1.1-0.6-1.4c-0.4-0.3-1-0.5-1.7-0.5h-2.2v3.9H812.6z"/>
	<path d="M817.8,162.2h0.8v7.9h-0.8V162.2z"/>
	<path d="M826.9,170.1L826,168h-4.4l-0.9,2.1h-0.8l3.5-7.9h0.8l3.5,7.9H826.9z M821.9,167.3h3.8l-1.9-4.3L821.9,167.3z"/>
</g>
<g class="st5">
	<path d="M660.2,38.7h1l3.1,5.9l3.1-5.9h1v7.9h-0.7v-6.8l-3.1,6H664l-3.1-6v6.8h-0.7L660.2,38.7L660.2,38.7z"/>
	<path d="M676.6,46.6l-0.9-2.1h-4.4l-0.9,2.1h-0.8l3.5-7.9h0.8l3.5,7.9H676.6z M671.6,43.8h3.8l-1.9-4.3L671.6,43.8z"/>
	<path d="M678.7,38.8h0.8V46h3.5v0.7h-4.2L678.7,38.8L678.7,38.8z"/>
	<path d="M684.5,38.8h0.8v7.9h-0.8V38.8z"/>
</g>
<g class="st5">
	<path d="M750.2-41.7l-0.9-2.1h-4.4l-0.9,2.1h-0.8l3.5-7.9h0.8l3.5,7.9H750.2z M745.2-44.5h3.8l-1.9-4.3L745.2-44.5z"/>
	<path d="M752.3-49.6h0.8v7.2h3.5v0.7h-4.2L752.3-49.6L752.3-49.6z"/>
	<path d="M766.2-49.6h5.3v0.7H767v2.8h4v0.7h-4v3h4.6v0.7h-5.4V-49.6z"/>
	<path d="M763.6-45.6h0.7v2.9c-0.4,0.3-0.8,0.6-1.3,0.8s-1,0.3-1.5,0.3c-0.7,0-1.4-0.2-2.1-0.5c-0.6-0.4-1.1-0.8-1.5-1.5
		c-0.4-0.6-0.6-1.3-0.6-2s0.2-1.4,0.6-2s0.9-1.1,1.5-1.4c0.6-0.4,1.3-0.5,2.1-0.5c0.5,0,1,0.1,1.5,0.3s0.9,0.5,1.3,0.8l-0.5,0.6
		c-0.3-0.3-0.7-0.5-1.1-0.7s-0.9-0.2-1.3-0.2c-0.6,0-1.2,0.1-1.7,0.4c-0.5,0.3-0.9,0.7-1.2,1.2S758-46,758-45.4
		c0,0.6,0.2,1.2,0.5,1.7s0.7,0.9,1.2,1.2s1.1,0.4,1.7,0.4c0.4,0,0.7-0.1,1.1-0.2c0.4-0.1,0.7-0.3,1-0.5L763.6-45.6L763.6-45.6z"/>
	<path d="M779.1-41.7l-1.7-2.6c-0.2,0-0.4,0-0.6,0h-2.2v2.5h-0.8v-7.9h2.9c1,0,1.7,0.2,2.3,0.7c0.5,0.5,0.8,1.1,0.8,1.9
		c0,0.7-0.2,1.2-0.5,1.6c-0.3,0.4-0.8,0.7-1.4,0.9l1.9,2.7h-0.7V-41.7L779.1-41.7z M776.8-45c0.8,0,1.3-0.2,1.7-0.5s0.6-0.8,0.6-1.5
		c0-0.6-0.2-1.1-0.6-1.4c-0.4-0.3-1-0.5-1.7-0.5h-2.2v3.9H776.8z"/>
	<path d="M782-49.6h0.8v7.9H782V-49.6z"/>
	<path d="M785.3-49.6h5.3v0.7h-4.5v2.8h4v0.7h-4v3h4.6v0.7h-5.4V-49.6z"/>
</g>
<g class="st5">
	<path d="M541.1,131.6c0.4,0.3,0.7,0.8,0.7,1.4c0,0.5-0.1,0.9-0.4,1.2c-0.3,0.3-0.6,0.5-1.1,0.6c0.6,0.1,1,0.3,1.4,0.6
		c0.3,0.4,0.5,0.8,0.5,1.3c0,0.7-0.3,1.2-0.8,1.6s-1.2,0.6-2.1,0.6H536V131h3.3C540.1,131.1,540.7,131.2,541.1,131.6z M540.5,134.2
		c0.3-0.2,0.5-0.6,0.5-1s-0.2-0.8-0.5-1s-0.7-0.4-1.3-0.3h-2.5v2.8h2.5C539.8,134.5,540.2,134.4,540.5,134.2z M540.8,137.8
		c0.4-0.3,0.6-0.6,0.6-1.1s-0.2-0.8-0.6-1.1c-0.4-0.3-0.9-0.4-1.6-0.4h-2.5v3h2.5C539.9,138.2,540.4,138.1,540.8,137.8z"/>
	<path d="M545.3,137.6c0.4,0.5,1,0.7,1.8,0.7c0.8,0,1.4-0.2,1.8-0.7c0.4-0.4,0.7-1.1,0.7-1.9V131h0.8v4.7c0,1-0.3,1.8-0.9,2.4
		s-1.4,0.9-2.4,0.9s-1.8-0.3-2.4-0.9c-0.6-0.6-0.9-1.4-0.9-2.4V131h0.8v4.7C544.7,136.6,544.9,137.2,545.3,137.6z"/>
	<path d="M557.9,138.9l-1.7-2.6c-0.2,0-0.4,0-0.6,0h-2.2v2.5h-0.8v-7.9h2.9c1,0,1.7,0.2,2.3,0.7c0.5,0.5,0.8,1.1,0.8,1.9
		c0,0.7-0.2,1.2-0.5,1.6c-0.3,0.4-0.8,0.7-1.4,0.9l1.9,2.7h-0.7V138.9z M555.6,135.7c0.8,0,1.3-0.2,1.7-0.5c0.4-0.3,0.6-0.8,0.6-1.5
		c0-0.6-0.2-1.1-0.6-1.4c-0.4-0.3-1-0.5-1.7-0.5h-2.2v3.9H555.6z"/>
	<path d="M567.2,138.9h-1l-3-3.8l-1.6,1.7v2.1h-0.8V131h0.8v4.8l4.4-4.8h0.9l-3.2,3.4L567.2,138.9z"/>
	<path d="M568.7,131.1h0.8v7.9h-0.8V131.1z"/>
	<path d="M577.6,131.1h0.8v7.9h-0.8l-4.9-6.7v6.7h-0.8v-7.9h0.8l4.9,6.7V131.1z"/>
	<path d="M586.7,138.9l-0.9-2.1h-4.4l-0.9,2.1h-0.8l3.5-7.9h0.8l3.5,7.9H586.7z M581.7,136.1h3.8l-1.9-4.3L581.7,136.1z"/>
	<path d="M592,131.1h4.9v0.7h-4.2v3h3.7v0.7h-3.7v3.4H592V131.1z"/>
	<path d="M603.9,138.9l-0.9-2.1h-4.4l-0.9,2.1h-0.8l3.5-7.9h0.8l3.5,7.9H603.9z M598.9,136.1h3.8l-1.9-4.3L598.9,136.1z"/>
	<path d="M609.2,131.9c-0.4-0.1-0.7-0.2-1.1-0.2c-0.5,0-1,0.1-1.3,0.3c-0.3,0.2-0.5,0.5-0.5,0.9c0,0.3,0.1,0.6,0.3,0.8
		c0.2,0.2,0.4,0.4,0.7,0.5s0.6,0.2,1.1,0.4c0.5,0.2,1,0.3,1.3,0.5s0.6,0.4,0.8,0.7c0.2,0.3,0.3,0.7,0.3,1.2c0,0.4-0.1,0.8-0.4,1.1
		c-0.2,0.3-0.6,0.6-1,0.7c-0.4,0.2-0.9,0.3-1.5,0.3c-0.5,0-1.1-0.1-1.6-0.3c-0.5-0.2-1-0.5-1.3-0.9l0.4-0.6c0.4,0.3,0.8,0.6,1.2,0.8
		c0.5,0.2,0.9,0.3,1.4,0.3c0.6,0,1.1-0.1,1.4-0.4c0.4-0.2,0.5-0.6,0.5-1c0-0.3-0.1-0.6-0.3-0.8c-0.2-0.2-0.4-0.4-0.7-0.5
		s-0.6-0.2-1.1-0.4c-0.5-0.2-1-0.3-1.3-0.5c-0.3-0.1-0.6-0.4-0.8-0.7c-0.2-0.3-0.3-0.7-0.3-1.1s0.1-0.7,0.3-1
		c0.2-0.3,0.5-0.5,0.9-0.7c0.4-0.2,0.9-0.2,1.4-0.2c0.4,0,0.9,0.1,1.3,0.2c0.4,0.1,0.8,0.3,1.1,0.5l-0.3,0.7
		C610,132.1,609.6,132,609.2,131.9z"/>
	<path d="M618.2,131.5c0.6,0.4,1.1,0.8,1.5,1.4c0.4,0.6,0.6,1.3,0.6,2s-0.2,1.4-0.6,2c-0.4,0.6-0.9,1.1-1.5,1.5
		c-0.6,0.4-1.3,0.5-2.1,0.5c-0.8,0-1.4-0.2-2.1-0.5s-1.1-0.8-1.5-1.5c-0.4-0.6-0.6-1.3-0.6-2s0.2-1.4,0.6-2c0.4-0.6,0.9-1.1,1.5-1.4
		c0.6-0.4,1.3-0.5,2.1-0.5C616.9,131,617.6,131.2,618.2,131.5z M614.5,132.1c-0.5,0.3-0.9,0.7-1.2,1.2s-0.5,1.1-0.5,1.7
		s0.2,1.2,0.5,1.7s0.7,0.9,1.2,1.2c0.5,0.3,1.1,0.4,1.7,0.4c0.6,0,1.1-0.1,1.6-0.4s0.9-0.7,1.2-1.2s0.5-1.1,0.5-1.7
		s-0.2-1.2-0.5-1.7s-0.7-0.9-1.2-1.2c-0.5-0.3-1.1-0.4-1.6-0.4C615.5,131.7,615,131.8,614.5,132.1z"/>
</g>
<g class="st5">
	<path d="M646.6,175.4c0.4,0.3,0.7,0.8,0.7,1.4c0,0.5-0.1,0.9-0.4,1.2s-0.6,0.5-1.1,0.6c0.6,0.1,1,0.3,1.4,0.6
		c0.3,0.4,0.5,0.8,0.5,1.3c0,0.7-0.3,1.2-0.8,1.6s-1.2,0.6-2.1,0.6h-3.3v-7.9h3.3C645.5,174.9,646.2,175,646.6,175.4z M646,178
		c0.3-0.2,0.5-0.6,0.5-1s-0.2-0.8-0.5-1s-0.7-0.4-1.3-0.3h-2.5v2.8h2.5C645.3,178.3,645.7,178.2,646,178z M646.3,181.6
		c0.4-0.3,0.6-0.6,0.6-1.1s-0.2-0.8-0.6-1.1c-0.4-0.3-0.9-0.4-1.6-0.4h-2.5v3h2.5C645.4,182,645.9,181.9,646.3,181.6z"/>
	<path d="M649.5,174.9h5.3v0.7h-4.5v2.8h4v0.7h-4v3h4.6v0.7h-5.4V174.9z M653.1,172.6l0.8,0.3l-1.4,1.1l-0.7-0.1L653.1,172.6z"/>
	<path d="M662.6,174.9h0.8v7.9h-0.8l-4.9-6.7v6.7h-0.8v-7.9h0.8l4.9,6.7V174.9z"/>
	<path d="M665.8,174.9h0.8v7.9h-0.8V174.9z"/>
	<path d="M674.8,174.9h0.8v7.9h-0.8l-4.9-6.7v6.7h-0.8v-7.9h0.8l4.9,6.7V174.9z"/>
</g>
<g>
	<path class="st6" d="M638.5-145.6c-0.3-0.1-0.5-0.1-0.7-0.1s-0.4,0-0.6,0.1c-0.1,0.1-0.2,0.2-0.2,0.4c0,0.1,0,0.3,0.1,0.4
		c0.1,0.1,0.2,0.2,0.4,0.2c0.1,0.1,0.3,0.1,0.6,0.2c0.4,0.1,0.6,0.2,0.9,0.3c0.2,0.1,0.4,0.3,0.6,0.5c0.2,0.2,0.2,0.5,0.2,0.8
		c0,0.3-0.1,0.6-0.3,0.8c-0.2,0.2-0.4,0.4-0.7,0.5c-0.3,0.1-0.6,0.2-1,0.2c-0.4,0-0.8-0.1-1.2-0.2c-0.4-0.2-0.7-0.4-1-0.6l0.4-0.9
		c0.3,0.2,0.6,0.4,0.9,0.6c0.3,0.1,0.6,0.2,0.9,0.2s0.5-0.1,0.7-0.2c0.2-0.1,0.2-0.3,0.2-0.4c0-0.1,0-0.3-0.1-0.4
		c-0.1-0.1-0.2-0.2-0.4-0.2c-0.1-0.1-0.4-0.1-0.6-0.2c-0.4-0.1-0.6-0.2-0.9-0.3c-0.2-0.1-0.4-0.2-0.6-0.5c-0.2-0.2-0.2-0.5-0.2-0.8
		c0-0.3,0.1-0.6,0.2-0.8c0.2-0.2,0.4-0.4,0.7-0.5c0.3-0.1,0.6-0.2,1-0.2c0.3,0,0.7,0,1,0.1s0.6,0.2,0.9,0.4l-0.4,0.9
		C639.1-145.4,638.8-145.5,638.5-145.6z"/>
	<path class="st6" d="M642-142.5c0.2,0.2,0.5,0.3,0.9,0.3c0.4,0,0.7-0.1,0.9-0.3s0.3-0.6,0.3-1v-3.1h1v3.1c0,0.5-0.1,0.8-0.3,1.2
		c-0.2,0.3-0.4,0.6-0.8,0.8c-0.3,0.2-0.7,0.3-1.2,0.3s-0.9-0.1-1.2-0.3c-0.3-0.2-0.6-0.4-0.8-0.8c-0.2-0.3-0.3-0.7-0.3-1.2v-3.1h1
		v3.1C641.6-143.1,641.7-142.7,642-142.5z"/>
	<path class="st6" d="M650-146.1c0.4,0.3,0.5,0.8,0.5,1.3c0,0.6-0.2,1.1-0.5,1.4c-0.4,0.3-0.9,0.5-1.5,0.5h-1.1v1.5h-1v-5.2h2.1
		C649.1-146.5,649.6-146.4,650-146.1z M649.3-144c0.2-0.2,0.3-0.4,0.3-0.7s-0.1-0.6-0.3-0.7c-0.2-0.2-0.5-0.2-0.9-0.2h-1.1v1.9h1.1
		C648.8-143.7,649.1-143.8,649.3-144z"/>
	<path class="st6" d="M651.4-146.5h3.8v0.9h-2.8v1.3h2.5v0.9h-2.5v1.3h2.9v0.9h-3.9V-146.5z"/>
	<path class="st6" d="M659.5-141.3l-0.9-1.5c0,0-0.1,0-0.2,0h-1.2v1.5h-1v-5.2h2.2c0.7,0,1.2,0.2,1.6,0.5s0.6,0.8,0.6,1.3
		c0,0.4-0.1,0.8-0.3,1c-0.2,0.2-0.4,0.5-0.8,0.6l1.1,1.7L659.5-141.3L659.5-141.3L659.5-141.3z M657.3-143.7h1.2
		c0.4,0,0.7-0.1,0.9-0.2c0.2-0.2,0.3-0.4,0.3-0.7c0-0.3-0.1-0.6-0.3-0.7c-0.2-0.2-0.5-0.2-0.9-0.2h-1.2V-143.7z"/>
	<path class="st6" d="M661.6-146.5h3.6v0.9h-2.6v1.4h2.4v0.9h-2.4v2.1h-1V-146.5z"/>
	<path class="st6" d="M666-146.5h1v5.2h-1V-146.5z"/>
	<path class="st6" d="M671.4-145.5c-0.3-0.1-0.5-0.2-0.8-0.2c-0.3,0-0.6,0.1-0.9,0.2c-0.3,0.2-0.5,0.4-0.6,0.6
		c-0.2,0.3-0.2,0.6-0.2,0.9s0.1,0.6,0.2,0.9c0.2,0.3,0.4,0.5,0.6,0.6c0.3,0.2,0.6,0.2,0.9,0.2c0.2,0,0.5-0.1,0.7-0.2
		c0.3-0.1,0.5-0.3,0.7-0.5l0.6,0.7c-0.3,0.3-0.6,0.5-1,0.7c-0.4,0.2-0.7,0.2-1.1,0.2c-0.5,0-1-0.1-1.4-0.4c-0.4-0.2-0.7-0.6-1-1
		c-0.2-0.4-0.4-0.9-0.4-1.4s0.1-0.9,0.4-1.4c0.2-0.4,0.6-0.7,1-1c0.4-0.3,0.9-0.3,1.4-0.3c0.4,0,0.7,0.1,1.1,0.2
		c0.4,0.1,0.7,0.4,0.9,0.6L672-145C671.8-145.2,671.6-145.4,671.4-145.5z"/>
	<path class="st6" d="M673.4-146.5h1v5.2h-1V-146.5z"/>
	<path class="st6" d="M675.7-146.5h3.8v0.9h-2.8v1.3h2.5v0.9h-2.5v1.3h2.9v0.9h-3.9V-146.5z"/>
</g>
<g>
	<path class="st6" d="M886.8-166.2h1v4.3h2.2v0.9h-3.2V-166.2z"/>
	<path class="st6" d="M894.7-161l-0.5-1.1h-2.5l-0.5,1.1h-1l2.3-5.2h1l2.3,5.2H894.7z M892.1-162.9h1.8l-0.9-2.2L892.1-162.9z"/>
	<path class="st6" d="M900-166.2h1v5.2h-0.9l-2.7-3.6v3.6h-1v-5.2h0.9l2.7,3.6V-166.2z"/>
	<path class="st6" d="M905.8-163.6h0.9v2c-0.3,0.2-0.6,0.4-1,0.5c-0.4,0.1-0.7,0.2-1.1,0.2c-0.5,0-1-0.1-1.4-0.4
		c-0.4-0.2-0.7-0.6-1-1c-0.3-0.4-0.4-0.9-0.4-1.4s0.1-0.9,0.4-1.3c0.2-0.4,0.6-0.7,1-1c0.4-0.2,0.9-0.4,1.4-0.4
		c0.4,0,0.7,0.1,1.1,0.2c0.4,0.1,0.7,0.3,0.9,0.6l-0.6,0.7c-0.2-0.2-0.4-0.3-0.7-0.4c-0.3-0.1-0.5-0.2-0.8-0.2s-0.6,0.1-0.9,0.2
		c-0.3,0.1-0.5,0.4-0.7,0.6c-0.2,0.3-0.2,0.6-0.2,0.9c0,0.3,0.1,0.6,0.2,0.9c0.2,0.3,0.4,0.5,0.7,0.6c0.3,0.2,0.6,0.2,0.9,0.2
		c0.2,0,0.4,0,0.6-0.1c0.2-0.1,0.4-0.1,0.6-0.2L905.8-163.6L905.8-163.6z"/>
	<path class="st6" d="M909.1-162.1c0.2,0.2,0.5,0.3,0.9,0.3s0.7-0.1,0.9-0.3c0.2-0.2,0.3-0.6,0.3-1v-3.1h1v3.1
		c0,0.5-0.1,0.8-0.3,1.2c-0.2,0.3-0.4,0.6-0.8,0.8c-0.3,0.2-0.7,0.3-1.2,0.3s-0.9-0.1-1.2-0.3c-0.3-0.2-0.6-0.4-0.8-0.8
		c-0.2-0.3-0.3-0.7-0.3-1.2v-3.1h1v3.1C908.7-162.7,908.9-162.4,909.1-162.1z"/>
	<path class="st6" d="M913.5-166.2h3.8v0.9h-2.8v1.3h2.5v0.9h-2.5v1.3h2.9v0.8h-3.9V-166.2z"/>
	<path class="st6" d="M924-165.9c0.4,0.2,0.8,0.6,1,1c0.2,0.4,0.4,0.9,0.4,1.4s-0.1,0.9-0.4,1.4s-0.6,0.7-1,1
		c-0.4,0.2-0.9,0.4-1.4,0.4s-1-0.1-1.4-0.4c-0.4-0.2-0.8-0.6-1-1c-0.2-0.4-0.4-0.9-0.4-1.4s0.1-0.9,0.4-1.4c0.2-0.4,0.6-0.7,1-1
		c0.4-0.2,0.9-0.3,1.4-0.3S923.5-166.1,924-165.9z M921.7-165.1c-0.3,0.2-0.5,0.4-0.6,0.6c-0.2,0.3-0.2,0.6-0.2,0.9
		c0,0.3,0.1,0.6,0.2,0.9c0.2,0.3,0.4,0.5,0.6,0.6c0.3,0.2,0.6,0.2,0.9,0.2c0.3,0,0.6-0.1,0.9-0.2c0.3-0.2,0.5-0.4,0.6-0.6
		c0.2-0.3,0.2-0.6,0.2-0.9c0-0.3-0.1-0.6-0.2-0.9c-0.2-0.3-0.4-0.5-0.6-0.6c-0.3-0.2-0.6-0.2-0.9-0.2
		C922.3-165.4,922-165.3,921.7-165.1z"/>
	<path class="st6" d="M926.2-166.2h3.6v0.9h-2.6v1.4h2.4v0.9h-2.4v2h-1V-166.2z"/>
	<path class="st6" d="M930.5-166.2h3.6v0.9h-2.6v1.4h2.4v0.9h-2.4v2h-1V-166.2z"/>
	<path class="st6" d="M934.9-166.2h1v5.2h-1V-166.2z"/>
	<path class="st6" d="M940.3-165.2c-0.2-0.1-0.5-0.2-0.8-0.2s-0.6,0.1-0.9,0.2c-0.3,0.2-0.5,0.4-0.6,0.6c-0.2,0.3-0.2,0.6-0.2,0.9
		s0.1,0.6,0.2,0.9c0.2,0.3,0.4,0.5,0.6,0.6c0.3,0.2,0.6,0.2,0.9,0.2c0.2,0,0.5-0.1,0.7-0.2c0.2-0.1,0.5-0.3,0.7-0.5l0.6,0.7
		c-0.3,0.3-0.6,0.5-1,0.7s-0.7,0.2-1.1,0.2c-0.5,0-1-0.1-1.4-0.4c-0.4-0.2-0.7-0.6-1-1c-0.2-0.4-0.4-0.9-0.4-1.4s0.1-0.9,0.4-1.4
		c0.2-0.4,0.6-0.7,1-1c0.4-0.2,0.9-0.3,1.4-0.3c0.4,0,0.7,0.1,1.1,0.2c0.4,0.1,0.7,0.4,0.9,0.6l-0.6,0.7
		C940.7-164.9,940.5-165.1,940.3-165.2z"/>
	<path class="st6" d="M942.3-166.2h1v5.2h-1V-166.2z"/>
	<path class="st6" d="M944.6-166.2h3.8v0.9h-2.8v1.3h2.5v0.9h-2.5v1.3h2.9v0.8h-3.9V-166.2z"/>
	<path class="st6" d="M949.5-166.2h1v4.3h2.2v0.9h-3.2V-166.2z"/>
	<path class="st6" d="M953.5-166.2h1v4.3h2.2v0.9h-3.2V-166.2z"/>
	<path class="st6" d="M957.6-166.2h3.8v0.9h-2.8v1.3h2.5v0.9h-2.5v1.3h2.9v0.8h-3.9V-166.2z"/>
</g>
<g>
	<path class="st6" d="M994.9-86.4h1.1l1.7,3.4l1.7-3.4h1.1v5.2h-0.9v-3.7l-1.6,3.2h-0.6l-1.6-3.2v3.7h-0.9V-86.4z"/>
	<path class="st6" d="M1005.6-86.1c0.4,0.2,0.8,0.6,1,1s0.4,0.9,0.4,1.4s-0.1,0.9-0.4,1.4s-0.6,0.7-1,1c-0.4,0.2-0.9,0.4-1.4,0.4
		s-1-0.1-1.4-0.4c-0.4-0.2-0.8-0.6-1-1s-0.4-0.9-0.4-1.4s0.1-0.9,0.4-1.4c0.2-0.4,0.6-0.7,1-1c0.4-0.2,0.9-0.3,1.4-0.3
		S1005.2-86.3,1005.6-86.1z M1003.4-85.3c-0.3,0.2-0.5,0.4-0.6,0.6c-0.2,0.3-0.2,0.6-0.2,0.9s0.1,0.6,0.2,0.9
		c0.2,0.3,0.4,0.5,0.6,0.6c0.3,0.2,0.6,0.2,0.9,0.2c0.3,0,0.6-0.1,0.9-0.2c0.3-0.2,0.5-0.4,0.6-0.6c0.2-0.3,0.2-0.6,0.2-0.9
		s-0.1-0.6-0.2-0.9c-0.2-0.3-0.4-0.5-0.6-0.6c-0.3-0.2-0.6-0.2-0.9-0.2C1003.9-85.5,1003.6-85.5,1003.4-85.3z"/>
	<path class="st6" d="M1011.5-86.4h1v5.2h-0.9l-2.7-3.6v3.6h-1v-5.2h0.9l2.7,3.6V-86.4z"/>
	<path class="st6" d="M1017.4-86.4h1v5.2h-0.9l-2.7-3.6v3.6h-1v-5.2h0.9l2.7,3.6V-86.4z"/>
	<path class="st6" d="M1023.5-81.2l-0.5-1.1h-2.5l-0.5,1.1h-1l2.3-5.2h1l2.3,5.2H1023.5z M1020.8-83.1h1.8l-0.9-2.2L1020.8-83.1z"/>
	<path class="st6" d="M1025.2-86.4h1v5.2h-1V-86.4z"/>
	<path class="st6" d="M1027.5-86.4h3.8v0.9h-2.8v1.3h2.5v0.9h-2.5v1.3h2.9v0.9h-3.9V-86.4z"/>
</g>
<g>
	<path d="M434.7,54.4v2.1h-1.9v3.1h-2.3v-3.1h-6.2v-1.8l4.2-8.1h2.4l-4,7.8h3.6v-3h2.3v3H434.7z"/>
	<path d="M450.2,57.5v2.2h-9.6v-1.8l4.9-5.1c0.5-0.5,0.8-0.9,1.1-1.4c0.3-0.5,0.4-0.9,0.4-1.2c0-0.5-0.2-0.8-0.6-1.1
		s-0.9-0.4-1.5-0.4s-1.2,0.1-1.8,0.4c-0.6,0.3-1.3,0.7-1.8,1.2l-1-1.9c0.8-0.6,1.6-1.1,2.4-1.4c0.8-0.3,1.7-0.5,2.6-0.5
		c0.9,0,1.6,0.1,2.3,0.4c0.7,0.3,1.2,0.7,1.5,1.2c0.4,0.5,0.5,1.1,0.5,1.7c0,0.6-0.2,1.3-0.7,2c-0.4,0.7-1,1.5-1.8,2.3l-3.3,3.3h6.4
		C450.2,57.4,450.2,57.5,450.2,57.5z"/>
	<path d="M461.2,57.5v2.2h-9.6v-1.8l4.9-5.1c0.5-0.5,0.8-0.9,1.1-1.4c0.3-0.5,0.4-0.9,0.4-1.2c0-0.5-0.2-0.8-0.6-1.1
		s-0.9-0.4-1.5-0.4s-1.2,0.1-1.8,0.4c-0.6,0.3-1.3,0.7-1.8,1.2l-1-1.9c0.8-0.6,1.6-1.1,2.4-1.4c0.8-0.3,1.7-0.5,2.6-0.5
		c0.9,0,1.6,0.1,2.3,0.4c0.7,0.3,1.2,0.7,1.5,1.2c0.4,0.5,0.5,1.1,0.5,1.7c0,0.6-0.2,1.3-0.7,2c-0.4,0.7-1,1.5-1.8,2.3l-3.3,3.3h6.4
		V57.5z"/>
	<path d="M472.3,54.4v2.1h-1.9v3.1h-2.3v-3.1h-6.2v-1.8l4.2-8.1h2.4l-4,7.8h3.6v-3h2.3v3H472.3z"/>
	<path d="M475.9,57.5c0.2,0.2,0.4,0.6,0.4,0.9c0,0.2,0,0.4-0.1,0.5c-0.1,0.1-0.1,0.3-0.3,0.5l-1.2,2.2h-1.2l0.8-2.2
		c-0.4-0.2-0.6-0.6-0.6-1.1c0-0.4,0.1-0.7,0.4-0.9c0.2-0.2,0.5-0.4,0.9-0.4C475.4,57.2,475.7,57.3,475.9,57.5z"/>
	<path d="M477.2,46.6h10v1.9l-5.4,11.1h-2.6l5.2-10.8h-5v1.8h-2.2V46.6z"/>
	<path class="st0" d="M494.3,46.6h1.6l5.1,9.8l5-9.8h1.6v13h-1.2V48.4l-5.1,9.8h-0.7l-5.1-9.8v11.2h-1.2
		C494.3,59.6,494.3,46.6,494.3,46.6z"/>
	<path class="st0" d="M511.7,46.7h1.3v13h-1.3V46.7z"/>
	<path class="st0" d="M517.1,46.7h1.3v11.8h5.7v1.2h-7V46.7z"/>
	<path class="st0" d="M526.6,46.7h1.3v11.8h5.7v1.2h-7V46.7z"/>
	<path class="st0" d="M536.2,46.7h1.3v13h-1.3V46.7z"/>
	<path class="st0" d="M551.2,59.7l-1.5-3.5h-7.2l-1.5,3.5h-1.4l5.9-13h1.3l5.9,13H551.2z M543,55h6.2l-3.1-7L543,55z"/>
	<path class="st0" d="M563.3,59.7l-2.8-4.2c-0.4,0-0.7,0-0.9,0H556v4.2h-1.3v-13h4.9c1.6,0,2.9,0.4,3.8,1.1c0.9,0.7,1.3,1.8,1.3,3.2
		c0,1.1-0.3,2-0.8,2.7s-1.3,1.2-2.2,1.5l3.1,4.5H563.3z M559.6,54.3c1.2,0,2.2-0.3,2.9-0.8c0.7-0.6,1-1.4,1-2.4s-0.3-1.8-1-2.4
		c-0.7-0.5-1.6-0.8-2.9-0.8H556v6.5h3.6V54.3z"/>
	<path class="st0" d="M576.8,47.5c1,0.6,1.8,1.4,2.4,2.4c0.6,1,0.9,2.1,0.9,3.3s-0.3,2.3-0.9,3.3c-0.6,1-1.4,1.8-2.4,2.3
		c-1,0.6-2.2,0.9-3.4,0.9h-5.2v-13h5.2C574.7,46.7,575.8,46.9,576.8,47.5z M576.2,57.8c0.8-0.5,1.5-1.1,1.9-1.9
		c0.4-0.8,0.7-1.7,0.7-2.7s-0.2-1.9-0.7-2.7s-1.1-1.5-2-1.9c-0.8-0.5-1.7-0.7-2.7-0.7h-3.9v10.7h4C574.4,58.5,575.3,58.3,576.2,57.8
		z"/>
	<path class="st0" d="M588.4,48c-0.6-0.2-1.2-0.3-1.8-0.3c-0.9,0-1.6,0.2-2.1,0.5c-0.5,0.4-0.8,0.8-0.8,1.4c0,0.5,0.1,1,0.4,1.3
		s0.7,0.6,1.1,0.8c0.4,0.2,1,0.4,1.8,0.6c0.9,0.3,1.6,0.5,2.1,0.8s1,0.6,1.4,1.1c0.4,0.5,0.6,1.1,0.6,1.9c0,0.7-0.2,1.3-0.6,1.8
		s-0.9,0.9-1.6,1.2s-1.5,0.4-2.4,0.4c-0.9,0-1.8-0.2-2.6-0.5c-0.9-0.4-1.6-0.8-2.2-1.4l0.6-1.1c0.6,0.6,1.3,1,2,1.3
		c0.8,0.3,1.5,0.5,2.3,0.5c1,0,1.8-0.2,2.4-0.6c0.6-0.4,0.9-0.9,0.9-1.6c0-0.5-0.1-1-0.4-1.3c-0.3-0.3-0.7-0.6-1.1-0.8
		c-0.4-0.2-1-0.4-1.8-0.7c-0.9-0.3-1.6-0.5-2.1-0.8c-0.5-0.2-1-0.6-1.4-1.1s-0.6-1.1-0.6-1.9c0-0.7,0.2-1.2,0.6-1.7s0.9-0.9,1.6-1.1
		c0.7-0.3,1.4-0.4,2.3-0.4c0.7,0,1.4,0.1,2.1,0.3s1.3,0.5,1.9,0.8l-0.6,1.1C589.6,48.4,589,48.2,588.4,48z"/>
	<path class="st0" d="M599.4,46.7h8.1v1.2h-6.9v5h6.1v1.2h-6.1v5.7h-1.3L599.4,46.7L599.4,46.7z"/>
	<path class="st0" d="M617.4,48.1c-0.7-0.3-1.4-0.4-2.1-0.4c-1,0-1.9,0.2-2.8,0.7c-0.8,0.5-1.5,1.1-2,2c-0.5,0.8-0.7,1.7-0.7,2.7
		s0.2,1.9,0.7,2.7s1.2,1.5,2,2c0.8,0.5,1.8,0.7,2.8,0.7c0.7,0,1.4-0.1,2.1-0.4c0.7-0.3,1.3-0.7,1.8-1.2l0.8,0.8
		c-0.6,0.6-1.4,1.1-2.2,1.4c-0.8,0.3-1.7,0.5-2.5,0.5c-1.2,0-2.4-0.3-3.4-0.9s-1.8-1.4-2.4-2.4s-0.9-2.1-0.9-3.3s0.3-2.3,0.9-3.3
		c0.6-1,1.4-1.8,2.5-2.4c1-0.6,2.2-0.9,3.4-0.9c0.9,0,1.7,0.2,2.5,0.5c0.8,0.3,1.5,0.8,2.2,1.4l-0.8,0.9
		C618.7,48.8,618.1,48.4,617.4,48.1z"/>
	<path class="st0" d="M622.8,46.7h8.1v1.2H624v5h6.1v1.2H624v5.7h-1.3L622.8,46.7L622.8,46.7z"/>
	<path class="st0" d="M642.4,59.7l-1.5-3.5h-7.2l-1.5,3.5h-1.4l5.9-13h1.3l5.9,13H642.4z M634.2,55h6.2l-3.1-7L634.2,55z"/>
</g>
<g>
	<rect x="523.1" y="162" class="st0" width="48.1" height="13.1"/>
	<g>
		<path class="st6" d="M531.2,167.5c-0.3-0.1-0.5-0.2-0.8-0.2c-0.3,0-0.6,0.1-0.9,0.2c-0.3,0.2-0.5,0.4-0.6,0.6
			c-0.2,0.3-0.2,0.6-0.2,0.9s0.1,0.6,0.2,0.9c0.2,0.3,0.4,0.5,0.6,0.6c0.3,0.2,0.6,0.2,0.9,0.2c0.2,0,0.5-0.1,0.7-0.2
			c0.3-0.1,0.5-0.3,0.7-0.5l0.6,0.7c-0.3,0.3-0.6,0.5-1,0.7c-0.4,0.2-0.7,0.2-1.1,0.2c-0.5,0-1-0.1-1.4-0.4c-0.4-0.2-0.7-0.6-1-1
			c-0.2-0.4-0.4-0.9-0.4-1.4s0.1-0.9,0.4-1.4c0.2-0.4,0.6-0.7,1-1c0.4-0.2,0.9-0.3,1.4-0.3c0.4,0,0.7,0.1,1.1,0.2
			c0.4,0.1,0.7,0.4,0.9,0.6l-0.6,0.7C531.7,167.8,531.5,167.6,531.2,167.5z"/>
		<path class="st6" d="M537.1,171.7l-0.5-1.1h-2.5l-0.5,1.1h-1l2.3-5.2h1l2.3,5.2H537.1z M534.5,169.8h1.8l-0.9-2.2L534.5,169.8z"/>
		<path class="st6" d="M542.5,167c0.4,0.3,0.5,0.8,0.5,1.3c0,0.6-0.2,1.1-0.5,1.4c-0.4,0.3-0.9,0.5-1.5,0.5h-1.1v1.5h-1v-5.2h2.1
			C541.6,166.5,542.1,166.7,542.5,167z M541.8,169.1c0.2-0.2,0.3-0.4,0.3-0.7c0-0.3-0.1-0.6-0.3-0.7c-0.2-0.2-0.5-0.2-0.9-0.2h-1.1
			v1.9h1.1C541.3,169.3,541.6,169.2,541.8,169.1z"/>
		<path class="st6" d="M543.8,166.5h1v5.2h-1V166.5z"/>
		<path class="st6" d="M545.5,166.5h4.2v0.9h-1.6v4.3h-1v-4.3h-1.6V166.5L545.5,166.5z"/>
		<path class="st6" d="M553.8,171.7l-0.5-1.1h-2.5l-0.5,1.1h-1l2.3-5.2h1l2.3,5.2H553.8z M551.1,169.8h1.8l-0.9-2.2L551.1,169.8z"/>
		<path class="st6" d="M555.5,166.5h1v4.3h2.2v0.9h-3.2V166.5z"/>
		<path class="st6" d="M559.5,166.5h3.8v0.9h-2.8v1.3h2.5v0.9h-2.5v1.3h2.9v0.9h-3.9V166.5z"/>
	</g>
	<g>
		<path d="M533.8,182.8h2.4v13h-2.4l-6.7-9v9h-2.4v-13h2.4l6.7,9V182.8z"/>
		<path d="M539.4,182.8h2.5v13h-2.5V182.8z"/>
		<path d="M554.7,195.8l-1.2-2.8h-6.4l-1.2,2.8h-2.6l5.7-13h2.6l5.6,13H554.7z M548.1,190.9h4.6l-2.3-5.5L548.1,190.9z"/>
		<path d="M559,182.8h2.8l4.3,8.4l4.3-8.4h2.8v13h-2.3v-9.3l-4.1,8h-1.6l-4.1-8v9.3H559V182.8z"/>
		<path d="M576.4,182.8h9.5v2.2h-7v3.2h6.3v2.2h-6.3v3.3h7.3v2.2h-9.8V182.8z"/>
		<path d="M599.2,182.8l-4.7,8.8v4.3H592v-4.2l-4.9-8.8h2.5l3.5,6.1l3.5-6.1L599.2,182.8L599.2,182.8z"/>
	</g>
</g>
<g>
	<path d="M635.4-133.4h5.2v13h-2.5v-10.8h-2.7V-133.4z"/>
	<path d="M657.4-122.6v2.2h-9.6v-1.8l4.9-5.1c0.5-0.5,0.8-0.9,1.1-1.4s0.4-0.9,0.4-1.2c0-0.5-0.2-0.8-0.6-1.1
		c-0.4-0.3-0.9-0.4-1.5-0.4s-1.2,0.1-1.8,0.4c-0.6,0.3-1.3,0.7-1.8,1.2l-1-1.9c0.8-0.6,1.6-1.1,2.4-1.4c0.8-0.3,1.7-0.5,2.6-0.5
		s1.6,0.1,2.3,0.4s1.2,0.7,1.5,1.2c0.4,0.5,0.5,1.1,0.5,1.7c0,0.6-0.2,1.3-0.7,2c-0.4,0.7-1,1.5-1.8,2.3l-3.3,3.3L657.4-122.6
		L657.4-122.6z"/>
	<path d="M666.3-131.3c-0.5-0.1-1-0.2-1.5-0.2c-1.2,0-2,0.4-2.6,1.2c-0.6,0.8-0.9,1.8-0.8,3.2c0.3-0.6,0.8-1,1.4-1.3
		c0.6-0.3,1.3-0.4,2.1-0.4c1.3,0,2.3,0.4,3.1,1.1c0.8,0.8,1.1,1.8,1.1,3c0,0.9-0.2,1.7-0.6,2.3c-0.4,0.7-0.9,1.2-1.6,1.5
		c-0.7,0.4-1.5,0.5-2.4,0.5c-1.1,0-2.1-0.3-2.9-0.8c-0.8-0.5-1.4-1.2-1.8-2.2c-0.4-1-0.6-2.1-0.6-3.4c0-1.4,0.2-2.6,0.7-3.6
		s1.1-1.8,2-2.4c0.9-0.6,1.9-0.8,3-0.8c0.7,0,1.4,0.1,2.1,0.3c0.7,0.2,1.3,0.4,1.9,0.7l-0.9,1.9
		C667.2-130.9,666.8-131.2,666.3-131.3z M662.3-126.3c-0.5,0.4-0.7,1-0.7,1.7c0,0.4,0.1,0.7,0.3,1.1c0.2,0.3,0.5,0.6,0.8,0.8
		c0.4,0.2,0.8,0.3,1.4,0.3c0.7,0,1.3-0.2,1.8-0.6c0.4-0.4,0.7-1,0.7-1.7c0-0.7-0.2-1.2-0.6-1.6c-0.4-0.4-1-0.6-1.7-0.6
		C663.4-127,662.8-126.7,662.3-126.3z"/>
	<path d="M670-133.4h10v1.9l-5.4,11.1H672l5.2-10.8h-5v1.8H670V-133.4z"/>
	<path d="M695.8-131.8c1,1.1,1.4,2.8,1.4,4.9c0,2.1-0.5,3.7-1.4,4.9c-1,1.1-2.3,1.7-4.1,1.7c-1.8,0-3.2-0.6-4.1-1.7
		c-1-1.1-1.4-2.8-1.4-4.9c0-2.1,0.5-3.8,1.4-4.9c1-1.1,2.3-1.7,4.1-1.7C693.4-133.5,694.8-133,695.8-131.8z M689.3-130.4
		c-0.5,0.7-0.7,1.9-0.7,3.5s0.2,2.8,0.7,3.5c0.5,0.8,1.3,1.1,2.3,1.1s1.8-0.4,2.3-1.1c0.5-0.8,0.7-1.9,0.7-3.5s-0.2-2.8-0.7-3.5
		c-0.5-0.7-1.3-1.1-2.3-1.1C690.6-131.6,689.8-131.2,689.3-130.4z"/>
	<path d="M708.9-131.8c1,1.1,1.4,2.8,1.4,4.9c0,2.1-0.5,3.7-1.4,4.9c-1,1.1-2.3,1.7-4.1,1.7s-3.2-0.6-4.1-1.7
		c-1-1.1-1.4-2.8-1.4-4.9c0-2.1,0.5-3.8,1.4-4.9c1-1.1,2.3-1.7,4.1-1.7C706.5-133.5,707.9-133,708.9-131.8z M702.4-130.4
		c-0.5,0.7-0.7,1.9-0.7,3.5s0.2,2.8,0.7,3.5c0.5,0.8,1.3,1.1,2.3,1.1s1.8-0.4,2.3-1.1c0.5-0.8,0.7-1.9,0.7-3.5s-0.2-2.8-0.7-3.5
		c-0.5-0.7-1.3-1.1-2.3-1.1C703.7-131.6,702.9-131.2,702.4-130.4z"/>
	<path d="M722-131.8c1,1.1,1.4,2.8,1.4,4.9c0,2.1-0.5,3.7-1.4,4.9c-1,1.1-2.3,1.7-4.1,1.7c-1.8,0-3.2-0.6-4.1-1.7
		c-1-1.1-1.4-2.8-1.4-4.9c0-2.1,0.5-3.8,1.4-4.9c1-1.1,2.3-1.7,4.1-1.7C719.6-133.5,721-133,722-131.8z M715.6-130.4
		c-0.5,0.7-0.7,1.9-0.7,3.5s0.2,2.8,0.7,3.5c0.5,0.8,1.3,1.1,2.3,1.1s1.8-0.4,2.3-1.1c0.5-0.8,0.7-1.9,0.7-3.5s-0.2-2.8-0.7-3.5
		c-0.5-0.7-1.3-1.1-2.3-1.1C716.8-131.6,716.1-131.2,715.6-130.4z"/>
	<path class="st0" d="M741.4-120.4h-1.6l-4.9-6.3l-2.6,2.9v3.5H731v-13h1.3v7.9l7.2-7.9h1.6l-5.2,5.7L741.4-120.4z"/>
	<path class="st0" d="M743.9-133.4h1.6l5.1,9.8l5-9.8h1.6v13H756v-11.2l-5.1,9.8h-0.7l-5.1-9.8v11.2h-1.2L743.9-133.4L743.9-133.4z"
		/>
	<path class="st0" d="M765-127.3v0.7h-5.4v-0.6l3-3.1c0.3-0.4,0.6-0.7,0.8-1.1c0.2-0.4,0.3-0.6,0.3-0.9c0-0.4-0.1-0.7-0.4-0.9
		s-0.7-0.3-1.2-0.3c-0.4,0-0.7,0.1-1.1,0.2c-0.4,0.2-0.7,0.4-1,0.7l-0.3-0.6c0.4-0.3,0.8-0.6,1.2-0.8c0.5-0.2,0.9-0.3,1.3-0.3
		c0.7,0,1.3,0.2,1.7,0.5c0.4,0.3,0.6,0.8,0.6,1.3c0,0.3-0.1,0.7-0.4,1.1c-0.2,0.4-0.6,0.9-1,1.3l-2.6,2.7L765-127.3L765-127.3z"/>
</g>
<g>
	<path d="M885.2-153.1h9v2.2h-6.5v3.5h5.9v2.2h-5.9v5.1h-2.5V-153.1z"/>
	<path d="M904.2-140.1l-2.2-3.8c-0.1,0-0.3,0-0.5,0h-2.9v3.8H896v-13h5.4c1.7,0,3,0.4,3.9,1.2c0.9,0.8,1.4,1.9,1.4,3.3
		c0,1-0.2,1.9-0.7,2.6c-0.4,0.7-1.1,1.3-1.9,1.6l2.9,4.3C907-140.1,904.2-140.1,904.2-140.1z M898.5-146.1h2.9
		c0.9,0,1.7-0.2,2.2-0.6c0.5-0.4,0.7-1,0.7-1.8c0-0.8-0.2-1.4-0.7-1.8c-0.5-0.4-1.2-0.6-2.2-0.6h-2.9V-146.1z"/>
	<path d="M919.1-140.1l-1.2-2.8h-6.4l-1.2,2.8h-2.6l5.7-13h2.6l5.6,13H919.1z M912.5-144.9h4.6l-2.3-5.5L912.5-144.9z"/>
	<path d="M932.4-153.1h2.4v13h-2.4l-6.7-9v9h-2.4v-13h2.4l6.7,9V-153.1z"/>
	<path d="M946.8-140.6c-0.8,0.4-1.6,0.6-2.4,0.7l-0.3,0.8c0.5,0.1,0.9,0.3,1.2,0.5c0.2,0.3,0.4,0.6,0.4,1c0,0.5-0.2,1-0.6,1.3
		c-0.4,0.3-0.9,0.4-1.6,0.4c-0.6,0-1.2-0.1-1.9-0.4l0.4-1.3c0.4,0.1,0.7,0.2,1.1,0.2c0.2,0,0.4,0,0.6-0.1c0.2-0.1,0.2-0.2,0.2-0.3
		c0-0.1-0.1-0.2-0.2-0.3c-0.2-0.1-0.4-0.1-0.7-0.1h-0.6l0.5-1.6c-1.1-0.1-2.1-0.5-3-1.1c-0.9-0.6-1.6-1.4-2.1-2.4s-0.8-2-0.8-3.2
		c0-1.2,0.3-2.4,0.9-3.4c0.6-1,1.4-1.8,2.5-2.4c1-0.6,2.2-0.9,3.5-0.9c0.9,0,1.8,0.2,2.7,0.6c0.9,0.4,1.7,0.9,2.3,1.5l-1.4,1.8
		c-0.5-0.5-1-0.9-1.6-1.2c-0.6-0.3-1.3-0.4-1.9-0.4c-0.8,0-1.5,0.2-2.2,0.6c-0.7,0.4-1.2,0.9-1.6,1.6c-0.4,0.7-0.6,1.4-0.6,2.2
		c0,0.8,0.2,1.5,0.6,2.2c0.4,0.7,0.9,1.2,1.6,1.6c0.7,0.4,1.4,0.6,2.2,0.6c0.6,0,1.2-0.1,1.9-0.4c0.6-0.3,1.2-0.7,1.7-1.1l1.5,1.6
		C948.3-141.5,947.6-141,946.8-140.6z"/>
	<path d="M960.5-140.1l-1.2-2.8H953l-1.2,2.8h-2.6l5.7-13h2.6l5.6,13H960.5z M953.9-144.9h4.6l-2.3-5.5L953.9-144.9z"/>
	<path d="M964.7-153.1h2.5v13h-2.5V-153.1z"/>
	<path d="M976.5-150.7c-0.7-0.2-1.3-0.3-1.8-0.3c-0.6,0-1.1,0.1-1.4,0.3c-0.3,0.2-0.5,0.5-0.5,0.9c0,0.4,0.1,0.7,0.4,0.9
		c0.2,0.2,0.5,0.4,0.9,0.6s0.9,0.3,1.5,0.5c0.9,0.3,1.6,0.5,2.2,0.8c0.6,0.3,1,0.6,1.4,1.2c0.4,0.5,0.6,1.2,0.6,2s-0.2,1.5-0.6,2.1
		c-0.4,0.6-1,1-1.8,1.3c-0.7,0.3-1.6,0.5-2.6,0.5s-2-0.2-3-0.6s-1.8-0.9-2.5-1.5l1-2.1c0.7,0.6,1.4,1.1,2.2,1.4s1.6,0.5,2.3,0.5
		s1.2-0.1,1.6-0.4c0.4-0.3,0.6-0.6,0.6-1.1c0-0.4-0.1-0.7-0.4-0.9c-0.2-0.2-0.5-0.4-0.9-0.6c-0.4-0.1-0.9-0.3-1.5-0.5
		c-0.9-0.3-1.6-0.5-2.2-0.8c-0.6-0.2-1-0.6-1.4-1.1s-0.6-1.2-0.6-2s0.2-1.4,0.6-2c0.4-0.6,1-1,1.7-1.3s1.6-0.5,2.6-0.5
		c0.8,0,1.7,0.1,2.5,0.4c0.8,0.2,1.6,0.6,2.2,1l-1,2.2C977.9-150.1,977.2-150.4,976.5-150.7z"/>
</g>
<g>
	<path d="M982.9,28.4l-2.8-4.2c-0.4,0-0.7,0-0.9,0h-3.6v4.2h-1.3v-13h4.8c1.6,0,2.9,0.4,3.8,1.1s1.3,1.8,1.3,3.2
		c0,1.1-0.3,2-0.8,2.7s-1.3,1.2-2.2,1.5l3.1,4.5H982.9z M979.2,23.1c1.2,0,2.2-0.3,2.9-0.8c0.7-0.6,1-1.4,1-2.4s-0.3-1.8-1-2.4
		c-0.7-0.5-1.6-0.8-2.9-0.8h-3.6v6.5h3.6V23.1z"/>
	<path d="M987.8,15.4h8.7v1.2h-7.4v4.6h6.6v1.2h-6.6v4.9h7.7v1.2h-8.9L987.8,15.4L987.8,15.4z M993.6,11.7l1.3,0.6l-2.3,1.9
		l-1.1-0.1L993.6,11.7z"/>
	<path d="M1009,22.1h1.1v4.8c-0.6,0.5-1.4,1-2.2,1.3s-1.7,0.5-2.6,0.5c-1.2,0-2.4-0.3-3.4-0.9s-1.9-1.4-2.5-2.4s-0.9-2.1-0.9-3.3
		s0.3-2.3,0.9-3.3c0.6-1,1.4-1.8,2.5-2.4c1-0.6,2.2-0.9,3.4-0.9c0.9,0,1.7,0.2,2.6,0.5c0.8,0.3,1.6,0.7,2.2,1.3l-0.7,0.9
		c-0.5-0.5-1.1-0.9-1.8-1.1c-0.7-0.3-1.4-0.4-2.2-0.4c-1,0-1.9,0.2-2.8,0.7c-0.8,0.5-1.5,1.1-2,2c-0.5,0.8-0.7,1.7-0.7,2.7
		s0.2,1.9,0.7,2.8c0.5,0.8,1.2,1.5,2,2s1.8,0.7,2.8,0.7c0.6,0,1.2-0.1,1.8-0.3s1.2-0.5,1.7-0.9v-4.3L1009,22.1L1009,22.1z"/>
	<path d="M1013.9,15.4h1.3v13h-1.3V15.4z"/>
	<path d="M1019.3,15.4h1.6l5.1,9.8l5-9.8h1.6v13h-1.2V17.2l-5.1,9.8h-0.7l-5.1-9.8v11.2h-1.2L1019.3,15.4L1019.3,15.4z"/>
	<path d="M1036.7,15.4h8.7v1.2h-7.4v4.6h6.6v1.2h-6.6v4.9h7.7v1.2h-8.9L1036.7,15.4L1036.7,15.4z"/>
	<path class="st0" d="M980,36.4c-0.7-0.2-1.3-0.3-1.8-0.3c-0.6,0-1.1,0.1-1.4,0.3c-0.3,0.2-0.5,0.5-0.5,0.9s0.1,0.7,0.4,0.9
		c0.2,0.2,0.5,0.4,0.9,0.6c0.4,0.2,0.9,0.3,1.5,0.5c0.9,0.3,1.6,0.5,2.2,0.8c0.6,0.3,1,0.6,1.4,1.2c0.4,0.5,0.6,1.2,0.6,2
		s-0.2,1.5-0.6,2.1c-0.4,0.6-1,1-1.8,1.3c-0.7,0.3-1.6,0.5-2.6,0.5s-2-0.2-3-0.6s-1.8-0.9-2.5-1.5l1-2.1c0.7,0.6,1.4,1.1,2.2,1.4
		c0.8,0.3,1.6,0.5,2.3,0.5s1.2-0.1,1.6-0.4c0.4-0.3,0.6-0.6,0.6-1.1c0-0.4-0.1-0.7-0.4-0.9c-0.2-0.2-0.5-0.4-0.9-0.6
		s-0.9-0.3-1.5-0.5c-0.9-0.3-1.6-0.5-2.2-0.8c-0.6-0.2-1-0.6-1.4-1.1s-0.6-1.2-0.6-2s0.2-1.4,0.6-2s1-1,1.7-1.3s1.6-0.5,2.6-0.5
		c0.8,0,1.7,0.1,2.5,0.4c0.8,0.2,1.6,0.6,2.2,1l-1,2.2C981.4,36.9,980.7,36.6,980,36.4z"/>
	<path class="st0" d="M985.6,34h9.5v2.2h-7v3.2h6.3v2.2h-6.3v3.3h7.3v2.2h-9.8V34z"/>
	<path class="st0" d="M997.8,34h2.8l4.3,8.4l4.3-8.4h2.8v13h-2.3v-9.3l-4.1,8h-1.6l-4.1-8V47h-2.3V34H997.8z"/>
	<path class="st0" d="M1015.3,34h2.5v13h-2.5V34z"/>
	<path class="st0" d="M1020.5,39.8h4.7v1.7h-4.7V39.8z"/>
	<path class="st0" d="M1037,35.2c0.9,0.8,1.3,1.9,1.3,3.3c0,1.5-0.4,2.6-1.3,3.5c-0.9,0.8-2.2,1.2-3.8,1.2h-2.8V47h-2.5V34h5.3
		C1034.8,34,1036.1,34.4,1037,35.2z M1035.2,40.4c0.5-0.4,0.8-1,0.8-1.8s-0.3-1.4-0.8-1.8c-0.5-0.4-1.2-0.6-2.2-0.6h-2.7V41h2.7
		C1034,41,1034.7,40.8,1035.2,40.4z"/>
	<path class="st0" d="M1048.6,47l-2.2-3.8c-0.1,0-0.3,0-0.5,0h-2.9V47h-2.5V34h5.4c1.7,0,3,0.4,3.9,1.2s1.4,1.9,1.4,3.3
		c0,1-0.2,1.9-0.7,2.6c-0.4,0.7-1.1,1.3-1.9,1.6l2.9,4.3L1048.6,47L1048.6,47z M1042.9,41h2.9c0.9,0,1.7-0.2,2.2-0.6s0.7-1,0.7-1.8
		s-0.2-1.4-0.7-1.8c-0.5-0.4-1.2-0.6-2.2-0.6h-2.9V41z"/>
	<path class="st0" d="M1053.9,34h9.5v2.2h-7v3.2h6.3v2.2h-6.3v3.3h7.3v2.2h-9.8V34z M1059.5,30.1l2.3,0.9l-2.4,1.9l-1.9-0.2
		L1059.5,30.1z"/>
	<path class="st0" d="M1072.3,36.4c-0.7-0.2-1.3-0.3-1.8-0.3c-0.6,0-1.1,0.1-1.4,0.3c-0.3,0.2-0.5,0.5-0.5,0.9s0.1,0.7,0.4,0.9
		c0.2,0.2,0.5,0.4,0.9,0.6c0.4,0.2,0.9,0.3,1.5,0.5c0.9,0.3,1.6,0.5,2.2,0.8c0.6,0.3,1,0.6,1.4,1.2c0.4,0.5,0.6,1.2,0.6,2
		s-0.2,1.5-0.6,2.1c-0.4,0.6-1,1-1.8,1.3c-0.7,0.3-1.6,0.5-2.6,0.5s-2-0.2-3-0.6c-1-0.4-1.8-0.9-2.5-1.5l1-2.1
		c0.7,0.6,1.4,1.1,2.2,1.4c0.8,0.3,1.6,0.5,2.3,0.5s1.2-0.1,1.6-0.4c0.4-0.3,0.6-0.6,0.6-1.1c0-0.4-0.1-0.7-0.4-0.9
		c-0.2-0.2-0.5-0.4-0.9-0.6s-0.9-0.3-1.5-0.5c-0.9-0.3-1.6-0.5-2.2-0.8c-0.6-0.2-1-0.6-1.4-1.1c-0.4-0.5-0.6-1.2-0.6-2
		s0.2-1.4,0.6-2c0.4-0.6,1-1,1.7-1.3s1.6-0.5,2.6-0.5c0.8,0,1.7,0.1,2.5,0.4c0.8,0.2,1.6,0.6,2.2,1l-1,2.2
		C1073.6,36.9,1073,36.6,1072.3,36.4z"/>
	<path class="st0" d="M1077.8,34h2.5v13h-2.5V34z"/>
	<path class="st0" d="M1092.4,34.8c1,0.6,1.8,1.3,2.4,2.3c0.6,1,0.9,2.1,0.9,3.4c0,1.3-0.3,2.4-0.9,3.4c-0.6,1-1.4,1.8-2.4,2.3
		c-1,0.6-2.2,0.8-3.5,0.8h-5.3V34h5.4C1090.2,34,1091.4,34.3,1092.4,34.8z M1091.1,44.2c0.6-0.4,1.1-0.9,1.5-1.5s0.5-1.4,0.5-2.2
		s-0.2-1.6-0.6-2.2c-0.4-0.7-0.9-1.2-1.5-1.5c-0.7-0.4-1.4-0.5-2.2-0.5h-2.8v8.6h3C1089.7,44.8,1090.5,44.6,1091.1,44.2z"/>
	<path class="st0" d="M1097.9,34h9.5v2.2h-7v3.2h6.3v2.2h-6.3v3.3h7.3v2.2h-9.8V34z"/>
	<path class="st0" d="M1119.2,34h2.4v13h-2.4l-6.7-9v9h-2.4V34h2.4l6.7,9V34z"/>
	<path class="st0" d="M1123.4,34h10.6v2.2h-4.1V47h-2.5V36.2h-4.1L1123.4,34L1123.4,34z"/>
	<path class="st0" d="M1135.7,34h2.5v13h-2.5V34z"/>
	<path class="st0" d="M1141.4,34h9.5v2.2h-7v3.2h6.3v2.2h-6.3v3.3h7.3v2.2h-9.8V34z"/>
	<path class="st0" d="M1153.7,34h2.5v10.8h5.6V47h-8.1V34z"/>
</g>
<g>
	<path d="M993.1-70.1h9v2.2h-6.5v3.5h5.9v2.2h-5.9v5.1h-2.5V-70.1z"/>
	<path d="M1011.7-67.6c-0.6-0.3-1.3-0.4-1.9-0.4c-0.8,0-1.5,0.2-2.2,0.6s-1.2,0.9-1.6,1.6c-0.4,0.7-0.6,1.4-0.6,2.2s0.2,1.5,0.6,2.2
		c0.4,0.7,0.9,1.2,1.6,1.6c0.7,0.4,1.4,0.6,2.2,0.6c0.6,0,1.2-0.1,1.9-0.4c0.6-0.3,1.2-0.7,1.7-1.1l1.5,1.6
		c-0.7,0.7-1.5,1.2-2.4,1.6s-1.8,0.6-2.8,0.6c-1.3,0-2.4-0.3-3.4-0.9s-1.9-1.4-2.5-2.4s-0.9-2.2-0.9-3.4c0-1.2,0.3-2.4,0.9-3.4
		c0.6-1,1.4-1.8,2.5-2.4c1-0.6,2.2-0.9,3.5-0.9c0.9,0,1.8,0.2,2.7,0.6s1.7,0.9,2.3,1.5l-1.4,1.8
		C1012.9-66.9,1012.3-67.3,1011.7-67.6z"/>
	<path d="M1016.8-70.1h9v2.2h-6.5v3.5h5.9v2.2h-5.9v5.1h-2.5V-70.1z"/>
	<path d="M1036.7-57.1l-1.2-2.8h-6.4l-1.2,2.8h-2.6l5.7-13h2.6l5.6,13H1036.7z M1030.1-62h4.6l-2.3-5.5L1030.1-62z"/>
</g>
<rect x="423.6" y="26.9" class="st0" width="91.7" height="13.1"/>
<g>
	<path class="st6" d="M430.1,32.2c0.4,0.3,0.5,0.8,0.5,1.3c0,0.6-0.2,1.1-0.5,1.4c-0.4,0.3-0.9,0.5-1.5,0.5h-1.1v1.5h-1v-5.2h2.1
		C429.3,31.8,429.8,31.9,430.1,32.2z M429.4,34.3c0.2-0.2,0.3-0.4,0.3-0.7s-0.1-0.6-0.3-0.7c-0.2-0.2-0.5-0.2-0.9-0.2h-1.1v1.9h1.1
		C428.9,34.6,429.2,34.5,429.4,34.3z"/>
	<path class="st6" d="M431.5,31.8h1V37h-1V31.8z"/>
	<path class="st6" d="M437.4,32.1c0.3,0.2,0.5,0.6,0.5,1c0,0.3-0.1,0.5-0.2,0.7c-0.2,0.2-0.4,0.3-0.7,0.4c0.3,0.1,0.6,0.2,0.8,0.4
		c0.2,0.2,0.3,0.5,0.3,0.9s-0.2,0.8-0.5,1.1c-0.3,0.3-0.8,0.4-1.4,0.4h-2.4v-5.2h2.3C436.6,31.8,437.1,31.9,437.4,32.1z M436.6,33.7
		c0.1-0.1,0.2-0.3,0.2-0.5s-0.1-0.4-0.2-0.5s-0.3-0.2-0.6-0.2h-1.3v1.3h1.3C436.3,33.9,436.5,33.8,436.6,33.7z M436.8,35.9
		c0.2-0.1,0.3-0.3,0.3-0.5s-0.1-0.4-0.3-0.5c-0.2-0.1-0.4-0.2-0.7-0.2h-1.3v1.4h1.2C436.3,36.1,436.6,36,436.8,35.9z"/>
	<path class="st6" d="M444.5,31.8h1V37h-0.9l-2.7-3.6V37h-1v-5.2h0.9l2.7,3.6V31.8z"/>
	<path class="st6" d="M450.5,32c0.4,0.2,0.8,0.6,1,1s0.4,0.9,0.4,1.4s-0.1,0.9-0.4,1.4c-0.2,0.4-0.6,0.7-1,1
		c-0.4,0.2-0.9,0.4-1.4,0.4s-1-0.1-1.4-0.4c-0.4-0.2-0.8-0.6-1-1c-0.2-0.4-0.4-0.9-0.4-1.4s0.1-0.9,0.4-1.4c0.2-0.4,0.6-0.7,1-1
		c0.4-0.2,0.9-0.3,1.4-0.3S450.1,31.8,450.5,32z M448.2,32.8c-0.3,0.2-0.5,0.4-0.6,0.6c-0.2,0.3-0.2,0.6-0.2,0.9
		c0,0.3,0.1,0.6,0.2,0.9c0.2,0.3,0.4,0.5,0.6,0.6c0.3,0.2,0.6,0.2,0.9,0.2c0.3,0,0.6-0.1,0.9-0.2s0.5-0.4,0.6-0.6
		c0.2-0.3,0.2-0.6,0.2-0.9c0-0.3-0.1-0.6-0.2-0.9c-0.2-0.3-0.4-0.5-0.6-0.6s-0.6-0.2-0.9-0.2C448.8,32.6,448.5,32.7,448.2,32.8z"/>
	<path class="st6" d="M452.7,31.8h1.1l1.7,3.4l1.7-3.4h1.1V37h-0.9v-3.7l-1.6,3.2h-0.6l-1.6-3.2V37h-0.9
		C452.7,37,452.7,31.8,452.7,31.8z"/>
	<path class="st6" d="M459.7,31.8h1V37h-1V31.8z"/>
	<path class="st6" d="M465.6,31.8h1V37h-0.9l-2.7-3.6V37h-1v-5.2h0.9l2.7,3.6V31.8z"/>
	<path class="st6" d="M471.7,37l-0.5-1.1h-2.5l-0.5,1.1h-1l2.3-5.2h1l2.3,5.2H471.7z M469.1,35h1.8l-0.9-2.2L469.1,35z"/>
	<path class="st6" d="M473.4,31.8h1v4.3h2.2V37h-3.2V31.8z"/>
	<path class="st6" d="M479.3,31.8h3.8v0.9h-2.8V34h2.5v0.9h-2.5v1.3h2.9v0.9h-3.9V31.8z"/>
	<path class="st6" d="M487.8,31.8h1V37h-0.9l-2.7-3.6V37h-1v-5.2h0.9l2.7,3.6V31.8z"/>
	<path class="st6" d="M495.4,36.1V37h-3.9v-0.7l2-2c0.2-0.2,0.3-0.4,0.5-0.6c0.1-0.2,0.2-0.3,0.2-0.5s-0.1-0.3-0.2-0.4
		c-0.1-0.1-0.4-0.2-0.6-0.2c-0.2,0-0.5,0.1-0.7,0.2c-0.3,0.1-0.5,0.3-0.7,0.5l-0.4-0.8c0.3-0.2,0.6-0.4,1-0.6c0.3-0.1,0.7-0.2,1-0.2
		s0.6,0.1,0.9,0.2c0.3,0.1,0.5,0.3,0.6,0.5s0.2,0.4,0.2,0.7s-0.1,0.5-0.3,0.8s-0.4,0.6-0.7,0.9l-1.3,1.3L495.4,36.1L495.4,36.1z"/>
	<path class="st6" d="M499.9,32.4c0.4,0.5,0.6,1.1,0.6,2c0,0.8-0.2,1.5-0.6,2s-0.9,0.7-1.7,0.7c-0.7,0-1.3-0.2-1.7-0.7
		s-0.6-1.1-0.6-2s0.2-1.5,0.6-2c0.4-0.5,0.9-0.7,1.7-0.7S499.5,31.9,499.9,32.4z M497.3,33c-0.2,0.3-0.3,0.8-0.3,1.4
		c0,0.6,0.1,1.1,0.3,1.4c0.2,0.3,0.5,0.5,0.9,0.5c0.4,0,0.7-0.2,0.9-0.5s0.3-0.8,0.3-1.4c0-0.6-0.1-1.1-0.3-1.4
		c-0.2-0.3-0.5-0.4-0.9-0.4C497.8,32.5,497.5,32.7,497.3,33z"/>
	<path class="st6" d="M500.9,31.8h2.1V37h-1v-4.3h-1.1V31.8z"/>
	<path class="st6" d="M507.1,33.9c0.3,0.1,0.5,0.3,0.7,0.6c0.2,0.2,0.2,0.5,0.2,0.8c0,0.4-0.1,0.7-0.3,0.9c-0.2,0.3-0.4,0.5-0.7,0.6
		c-0.3,0.1-0.7,0.2-1.1,0.2c-0.3,0-0.7-0.1-1-0.2c-0.4-0.1-0.7-0.3-0.9-0.4l0.4-0.8c0.2,0.2,0.5,0.3,0.7,0.4
		c0.3,0.1,0.5,0.1,0.8,0.1s0.6-0.1,0.8-0.2c0.2-0.2,0.3-0.4,0.3-0.6c0-0.3-0.1-0.4-0.3-0.6c-0.2-0.1-0.5-0.2-0.8-0.2
		c-0.2,0-0.4,0-0.7,0c-0.3,0-0.5,0-0.7,0v-2.8h3.3v0.9h-2.4v1h0.7C506.5,33.7,506.8,33.7,507.1,33.9z"/>
</g>
<g>
	<g>
		<g>
			<defs>
				<path id="SVGID_2_" d="M898.5-51.1l0.3,0.2h0.3c5-2.5,10-5.1,15-7.7l0,0l0,0l0,0v0.2c1.1,7,2.2,14,3.3,21.1
					c0,3.4,0,6.8-0.1,10.2l0.1,0.3l0.3,0.3l0.9,0.5l0.4,0.3l0.7,0.8c1.6,2.7,3.3,5.3,4.9,8l0.3,0.5c0.2,0.3,0.4,0.7,0.6,1l-0.8,0.4
					l-0.5,0.8l-0.2,1l0.1,0.9l0.2,0.5l0.3,0.5l0.3,0.4l1.6,1.3c1.8,2.1,3.7,4.2,5.5,6.3l0.3,0.5v0.3l-0.1,0.4
					c-1.3,2.3-2.7,4.6-4,6.9l-0.7,1.6c-0.7,7-1.5,13.9-2.2,20.9s-1.5,13.9-2.2,20.9c-0.7,6.5-1.4,13-2.1,19.5l-0.1,0.4l-0.3,0.4
					c-5.1,5.2-10.2,10.4-15.3,15.6c-2.2,2.3-4.5,4.5-6.7,6.8c-3.6,4.8-7.3,9.7-10.9,14.5c-0.5,1-1,2-1.5,3.1l-0.1,0.4v0.4l0.1,0.4
					l0.3,0.9v0.4l-0.2,0.5l-0.3,0.2h-0.4l-0.4,0.1l-0.2,0.1l-0.7,0.7L884,113l-0.1,0.1v0.1l0.2,0.2l0.1,0.1l0.1,0.8v0.4l-0.2,0.4
					l-0.7,0.5l-0.8,0.1h-0.8l-0.7,0.3l-0.5,0.2l-0.7,0.9v1.2c0.2,0.8,0.4,1.6,0.6,2.4l0.2,0.9l0.1,0.6c0.7,3.2,1.3,6.4,1.9,9.7
					l-4.9-0.3l-0.6,0.1l-0.2,0.1v0.3l-0.3,0.2l-0.8,0.7l-0.1,0.2l-0.1,0.2v0.1l0.1,0.1v0.1l-0.1,0.2h-0.1h-0.1h-0.1l-0.2,0.3v0.1
					h0.3l-0.4,0.5l-0.5,0.2l-0.5,0.1l-0.5,0.2l0.1-0.2v-0.2v-0.2h-0.2l-0.1,0.1l-0.2,0.3l-0.2,0.1V135v-0.1l-0.3,0.1h-0.4l-0.2-0.1
					l0.1-0.2v-0.1h-0.6l-0.5,0.2l-1.8,0.8l-0.5,0.1l-0.6-0.1l-0.1,0.3h-0.2l-0.2-0.1l-0.3-0.1v0.2l0.2,0.1l0.1,0.1l0.1,0.1l0.1,0.2
					l-0.3,0.2l-0.6,0.6v0.1v0.2v0.1h-0.1h-0.2h-0.1h-0.1l-0.3,0.1l-0.1,0.1l0.1,0.2l0.1,0.1v0.1H866v-0.1l-0.1-0.1l-0.1-0.1v0.1l0,0
					l-0.1,0.3l-0.5,0.6l-0.3,0.2l-0.5,0.1l-0.2,0.1l-0.1,0.5l-0.2,0.1l-0.3-0.1l-0.2-0.1l-0.2-0.2l-0.2-0.2v0.3v0.1l-0.1,0.1
					l-0.1,0.1h-0.1l-0.1-0.1l-0.1,0.1l-0.7,0.7l-0.1,0.3l-0.3,0.4l-0.1,0.3l0.3,0.1l-0.1,0.4l-0.1,0.2l-0.2,0.2h-0.1l-0.4,0.1
					l-0.1,0.1l-0.2,1.1l-0.1,0.2l-0.3,0.1l-0.3-0.1l-0.4-0.1l-0.5-0.1l-1.2-0.1l-0.3-0.1l-0.2,0.1l-0.1-0.1l-0.1-0.2l-0.2-0.1h-0.2
					l-0.1,0.1l-0.1,0.1h-0.1H856v-0.1v-0.1l-0.1-0.1l-0.2-0.1l-1-0.4l-0.3,0.1l-0.4,0.3h-0.3H853l-1.2-0.3l-0.4-0.2l-0.9-0.7
					l-2.7-1.7l-2.2-0.9l-6-1.6l-9.6-0.2l-3.6-0.5l-1.9,0.1l-10.2,1.9l-0.8,0.3l-3.8,2l-0.4,0.3l-0.1,0.2l-0.1,0.5l-0.1,0.2l-0.2,0.2
					h-0.1h-0.1l-0.2,0.1L808,143l-0.7,0.6l-3.6,4.1l-0.2,0.2l-0.2,0.1l-0.1,0.1h-0.4l-4.2-0.6h-0.4l-1.1,0.3h-0.7l-6.4-0.9l-5.2-1.6
					l-0.7-0.4l-0.3-0.4l-0.5-0.9l-0.4-0.4l-0.8-0.7l-0.5-0.2l-0.5-0.1h-0.2h-0.5l-0.2,0.1l-0.2,0.1l-0.1,0.1h-0.1l-0.2-0.1l-0.1-0.1
					l-1.9-1.8L777,140l-0.3-0.2l-0.3-0.1l-0.6-0.2l-0.3-0.1l-0.7-0.5l-0.5-0.3l-0.5-0.5l-0.2-0.2l-0.5-0.2l-5-0.8h-0.7l-0.7,0.3
					l-7.3,4.1l-0.6,0.2h-0.7l-2.1-0.4l-0.4,0.1l-1.2,1.4l-1,0.8l-0.4,0.2l-0.5,0.1H751l-0.7-0.1l-0.6-0.2l-0.6-0.5l-0.7-0.7
					l-1.1-1.4l-2-3.9l-3.2-3.6l-2.7-2.7l-1.3-0.8l-1.4-0.3l-0.4,0.1l-1.2,0.6h-0.2l-0.1-0.1l-0.1-0.1l-0.2-0.1l-11.1-4.6l-0.6-0.2
					l-1.2,1.9l-0.7,0.2l-0.6,0.4l0,0l-1.7-0.5l-0.6,0.4l-0.2,0.1l0.1,1.1l-3.6-1.2l-2,0.3l0,0l-1.6-0.3l-0.4-0.4l-0.5-0.2l0.3,1.7
					l-7.3-0.2l0.1,0.3l-1,1.8l-4.3,1.8l-0.6,0.3l-0.6,0.1l0.4,1.8l-1.8,3l-0.8,4.7l-3.3,4.8l-1.3,1.2l-4.4,3.1l-0.1,0.2l0.1,5
					l-0.6,2.6v0.9l0.5,1.5l0.1,0.7l-0.4,0.7l-0.3,0.3l-0.2,0.3l-0.1,0.3l0.1,1.1l0.1,0.2l0.1,0.2l0.1,0.1l0.1,0.1l0.5,0.5l0.2,0.4
					l0.1,0.4l-0.1,0.4l-0.2,0.2l-1,0.6l-0.1-0.1l-0.2-0.3l-0.2-0.1l-0.1-0.2v-0.2l-0.1-0.2l-0.1-0.3l-0.1-0.2l-0.1-0.1l-0.1-0.1
					l-0.1-0.1l-0.6-1l-0.2-0.2l-0.2-0.2l-0.7-0.3l-0.9-0.6l-0.2-0.1l-0.2-0.1h-0.2l-0.3,0.2l-0.3,0.1l-0.3-0.1l-0.2-0.2l-0.2-0.2
					l-0.3-0.3l-0.4-0.8l-0.1-0.4l-0.1-0.4v-0.4l-0.1-0.1l-0.3-0.2l-0.1-0.1l-3.3-3.2l-0.8-1.2l-0.2-0.4l-0.1-0.1l-0.2-0.1l-0.7-0.1
					l-0.2-0.1l-0.2-0.1l-0.2-0.2l-0.1-0.4l-0.1-0.3l-0.2-0.2l-0.4-0.2l-0.9-0.9l-0.2,0.3h-0.5h-0.2h-0.4H668l-0.2,0.1l-0.3,0.4
					l-0.2,0.1h-0.2l-0.2-0.1l-0.2,0.1l-0.1,0.1l-0.1,0.1v0.2l-0.1,0.2l-0.3,0.4l-0.2,0.1l-0.7-0.2h-0.1l-0.2,0.2l-0.1,0.1h-0.1
					l-0.2-0.1h-0.1l-0.7,0.2l-0.1,0.1L663,156l-0.1,0.1h-0.1l-0.1-0.1v-0.1h-0.1h-0.2h-0.2l-0.1,0.1l-0.1,0.2l-0.1,0.2h-0.1
					l-0.1-0.1h-0.1l-0.1,0.1l-0.2,0.2l0,0H661h-0.5h-0.3l-0.5,0.2l-0.2,0.3v0.5l0.2,1.1l0.6,1.9l0.1,0.2l0.1,0.2l0.2,0.2l0.2,0.1
					h0.2l0.1,0.1v0.2v0.3h-0.1l-0.2-0.1h-0.2l-0.1,0.1l-0.2,0.3l-0.1,0.2h-0.2h-0.2h-0.2l-0.1,0.3v0.2l0.2,0.4v0.2l-1-0.9
					c-1.7-2.5-3.4-5-5.1-7.4l-0.4-0.7l0.1-0.6l0.3-0.2l1.1-0.2l0.1-0.1l0.1-0.2l0.1-0.1h0.1l0.2,0.1h0.1l1.2-0.1l0.3-0.1l0.1-0.2
					v-0.4v-0.1l0.1-0.2V152l-0.1-0.2l-0.2-0.3l-0.1-0.2l-0.2-0.3l-0.1-0.3l-0.1-1.2l-0.1-0.2l-0.1-0.3l-0.2-0.2l-0.4-0.2l-0.2-0.2
					l-0.2-0.2l-0.1-0.1l-0.1-0.4l-0.5-0.6l-0.8-0.2l-1.9-0.2l-0.2,0.1l-0.3,0.4l-0.2,0.1h-0.2l-0.1-0.1h-0.2l-0.1,0.1l-0.1,0.3
					l-0.3,0.5l-0.2,0.4l-0.2,0.3l-0.3,0.2H649c-1.5-0.2-3-0.3-4.5-0.5l-0.7-0.2l-0.5-0.3c-2.7-2.4-5.5-4.8-8.2-7.2l-0.6-0.3
					l-1.4-0.1l-0.6-0.3l-0.2-0.3v-0.4c0-1.7,0.1-3.5,0.1-5.2l0.3-0.8l0.4,0.1l1.6,0.7l1.1,0.3l0.4,0.2h0.1l0.2-0.7l0.1-0.2l0.1-0.1
					l0.4,0.1l0.3,0.3l0.4,0.2l0.5-0.2l-0.4-0.4l-0.3-0.2l-0.3-0.1l-0.8-0.1l-0.4-0.1l-2.1-1l-0.6-0.5l-0.4-0.6l-0.1-0.9l-0.8-0.9
					l-1.1-0.7l-0.9-0.3l-0.7,0.1h-0.3l-0.4-0.2l-0.2-0.2v-0.1l0.1-0.1v-0.1v-0.1v-0.2l-0.1-0.1h-0.2h-2.6l-0.5-0.2l-0.3-0.5l0.1-0.3
					l0.2-0.4l0.1-0.4l-0.1-0.2l-0.4-0.1l-0.2-0.2l-0.2-0.3l-0.7-0.5l-0.3-0.3l-0.2-0.3l-0.2-0.4l-0.2-0.2l-0.4-0.3l-0.1-0.1v-0.2
					l0.2-0.4v-0.2l-0.2-0.2l-0.3-0.2l-0.3-0.2l-0.1-0.4v-0.4l-0.2-0.2l-0.3-0.1l-0.2-0.2v-0.2l0.2-0.3v-0.1l-0.1-0.2l-0.1-0.1
					l-0.1-0.1l-0.1-0.1l-0.2-0.4l-0.1-0.2l0.1-0.2l0.5-0.7l0.1-0.2l0.1-0.6l0.1-0.2l0.2-0.2v-0.2l-0.1-0.1l-0.8-1.1l-3.1-2.9l-0.6-1
					l-0.1-1l1.4-3.7l-0.1-0.6l-0.5-1.2v-0.6l0.2-0.3l0.3-0.2l0.2-0.3c0-0.5-0.1-1-0.1-1.5v-0.5l0.2-0.2l2.6,0.7h0.7l0.6-0.1l1.3-0.4
					h0.6l3,1.2h0.3l0.5-0.1c0.4-0.1,0.8-0.3,1.2-0.4h3l0.5-0.1l0.5-0.2c2-1.8,4-3.5,6-5.3l0.5-0.3l0.7-0.1
					c7.5-0.1,14.8-1.6,22.3-1.7c3.5,0,6.3-0.1,9.8-0.1l1,1.2v-0.8v-0.4l0.1-0.2l0.1-0.1l0.3-0.1h0.8c2.7,0.5,2.5-0.2,5.2,0.3h1.5
					l1.4-0.2l0.8-0.7l0.2-0.5l1.8-1l1.6-1.7l0.7-0.4l1.6-0.3l0.7-0.4l0.5-0.6l0.3-0.7l0.2-0.8l0.2-2l0.1-0.4l0.3-0.5l1.2-1.1v-0.1
					v-0.1v-0.1c0,0,0,0,0-0.1l0,0l-0.2-0.6l-0.1-0.6l0.1-0.6l1.9-4.3l0.3-0.5l0.4-0.4l0.5-0.3l0.9-0.4l0.3-0.3l0.2-0.5
					c0.1-2.7,0.1-5.3,0.1-8l0.1-0.2l0.3-0.4l0.1-0.2l-0.1-2v-0.4l0.1-0.4l0.2-0.1h0.2l0.3-0.2c0.1-7.3,0.3-14.7,0.4-22
					c0.1-7.3,0.3-14.7,0.4-22c7.4-1.3,14.8-2.6,22.2-3.9c2.7-0.5,5.4-1,8-1.4l0.9-0.3l0.9-0.6c5.6-4.8,11.3-9.7,16.9-14.6
					c5.4-4.7,10.8-9.2,16.3-13.7c6.5-3.8,12.9-7.7,19.4-11.5c6.6-3.9,13.1-7.8,19.7-11.7c6.5-3.9,13-7.8,19.5-11.7
					c6.4-3.8,12.9-7.7,19.3-11.6c4-2.4,8.1-4.9,12.1-7.3c7.2,1.9,14.5,3.8,21.7,5.7c2.7,0.7,5.4,1.4,8.1,2.1l2.3,1.3
					C890.7-58.3,894.6-54.7,898.5-51.1"/>
			</defs>
			<clipPath id="SVGID_3_">
				<use xlink:href="#SVGID_2_"  style="overflow:visible;"/>
			</clipPath>
			<g class="st7">
				<rect x="616.6" y="-86.8" class="st8" width="379.4" height="257.4"/>
				<rect x="616.6" y="-86.8" class="st6" width="379.4" height="161.8"/>
				<rect x="616.6" y="-86.8" class="st0" width="379.4" height="80.9"/>
				<circle class="st0" cx="808.8" cy="34.5" r="31.6"/>
			</g>
		</g>
	</g>
	<g>
		<path id="SVGID_1_" vector-effect="none" class="st9" d="M898.5-51.1l0.3,0.2h0.3c5-2.5,10-5.1,15-7.7l0,0l0,0l0,0v0.2
			c1.1,7,2.2,14,3.3,21.1c0,3.4,0,6.8-0.1,10.2l0.1,0.3l0.3,0.3l0.9,0.5l0.4,0.3l0.7,0.8c1.6,2.7,3.3,5.3,4.9,8l0.3,0.5
			c0.2,0.3,0.4,0.7,0.6,1l-0.8,0.4l-0.5,0.8l-0.2,1l0.1,0.9l0.2,0.5l0.3,0.5l0.3,0.4l1.6,1.3c1.8,2.1,3.7,4.2,5.5,6.3l0.3,0.5v0.3
			l-0.1,0.4c-1.3,2.3-2.7,4.6-4,6.9l-0.7,1.6c-0.7,7-1.5,13.9-2.2,20.9s-1.5,13.9-2.2,20.9c-0.7,6.5-1.4,13-2.1,19.5l-0.1,0.4
			l-0.3,0.4c-5.1,5.2-10.2,10.4-15.3,15.6c-2.2,2.3-4.5,4.5-6.7,6.8c-3.6,4.8-7.3,9.7-10.9,14.5c-0.5,1-1,2-1.5,3.1l-0.1,0.4v0.4
			l0.1,0.4l0.3,0.9v0.4l-0.2,0.5l-0.3,0.2h-0.4l-0.4,0.1l-0.2,0.1l-0.7,0.7L884,113l-0.1,0.1v0.1l0.2,0.2l0.1,0.1l0.1,0.8v0.4
			l-0.2,0.4l-0.7,0.5l-0.8,0.1h-0.8l-0.7,0.3l-0.5,0.2l-0.7,0.9v1.2c0.2,0.8,0.4,1.6,0.6,2.4l0.2,0.9l0.1,0.6
			c0.7,3.2,1.3,6.4,1.9,9.7l-4.9-0.3l-0.6,0.1l-0.2,0.1v0.3l-0.3,0.2l-0.8,0.7l-0.1,0.2l-0.1,0.2v0.1l0.1,0.1v0.1l-0.1,0.2h-0.1
			h-0.1h-0.1l-0.2,0.3v0.1h0.3l-0.4,0.5l-0.5,0.2l-0.5,0.1l-0.5,0.2l0.1-0.2v-0.2v-0.2h-0.2l-0.1,0.1l-0.2,0.3l-0.2,0.1V135v-0.1
			l-0.3,0.1h-0.4l-0.2-0.1l0.1-0.2v-0.1h-0.6l-0.5,0.2l-1.8,0.8l-0.5,0.1l-0.6-0.1l-0.1,0.3h-0.2l-0.2-0.1l-0.3-0.1v0.2l0.2,0.1
			l0.1,0.1l0.1,0.1l0.1,0.2l-0.3,0.2l-0.6,0.6v0.1v0.2v0.1h-0.1h-0.2h-0.1h-0.1l-0.3,0.1l-0.1,0.1l0.1,0.2l0.1,0.1v0.1H866v-0.1
			l-0.1-0.1l-0.1-0.1v0.1l0,0l-0.1,0.3l-0.5,0.6l-0.3,0.2l-0.5,0.1l-0.2,0.1l-0.1,0.5l-0.2,0.1l-0.3-0.1l-0.2-0.1l-0.2-0.2l-0.2-0.2
			v0.3v0.1l-0.1,0.1l-0.1,0.1h-0.1l-0.1-0.1l-0.1,0.1l-0.7,0.7l-0.1,0.3l-0.3,0.4l-0.1,0.3l0.3,0.1l-0.1,0.4l-0.1,0.2l-0.2,0.2h-0.1
			l-0.4,0.1l-0.1,0.1l-0.2,1.1l-0.1,0.2l-0.3,0.1l-0.3-0.1l-0.4-0.1l-0.5-0.1l-1.2-0.1l-0.3-0.1l-0.2,0.1l-0.1-0.1l-0.1-0.2
			l-0.2-0.1h-0.2l-0.1,0.1l-0.1,0.1h-0.1H856v-0.1v-0.1l-0.1-0.1l-0.2-0.1l-1-0.4l-0.3,0.1l-0.4,0.3h-0.3H853l-1.2-0.3l-0.4-0.2
			l-0.9-0.7l-2.7-1.7l-2.2-0.9l-6-1.6l-9.6-0.2l-3.6-0.5l-1.9,0.1l-10.2,1.9l-0.8,0.3l-3.8,2l-0.4,0.3l-0.1,0.2l-0.1,0.5l-0.1,0.2
			l-0.2,0.2h-0.1h-0.1l-0.2,0.1L808,143l-0.7,0.6l-3.6,4.1l-0.2,0.2l-0.2,0.1l-0.1,0.1h-0.4l-4.2-0.6h-0.4l-1.1,0.3h-0.7l-6.4-0.9
			l-5.2-1.6l-0.7-0.4l-0.3-0.4l-0.5-0.9l-0.4-0.4l-0.8-0.7l-0.5-0.2l-0.5-0.1h-0.2h-0.5l-0.2,0.1l-0.2,0.1l-0.1,0.1h-0.1l-0.2-0.1
			l-0.1-0.1l-1.9-1.8L777,140l-0.3-0.2l-0.3-0.1l-0.6-0.2l-0.3-0.1l-0.7-0.5l-0.5-0.3l-0.5-0.5l-0.2-0.2l-0.5-0.2l-5-0.8h-0.7
			l-0.7,0.3l-7.3,4.1l-0.6,0.2h-0.7l-2.1-0.4l-0.4,0.1l-1.2,1.4l-1,0.8l-0.4,0.2l-0.5,0.1H751l-0.7-0.1l-0.6-0.2l-0.6-0.5l-0.7-0.7
			l-1.1-1.4l-2-3.9l-3.2-3.6l-2.7-2.7l-1.3-0.8l-1.4-0.3l-0.4,0.1l-1.2,0.6h-0.2l-0.1-0.1l-0.1-0.1l-0.2-0.1l-11.1-4.6l-0.6-0.2
			l-1.2,1.9l-0.7,0.2l-0.6,0.4l0,0l-1.7-0.5l-0.6,0.4l-0.2,0.1l0.1,1.1l-3.6-1.2l-2,0.3l0,0l-1.6-0.3l-0.4-0.4l-0.5-0.2l0.3,1.7
			l-7.3-0.2l0.1,0.3l-1,1.8l-4.3,1.8l-0.6,0.3l-0.6,0.1l0.4,1.8l-1.8,3l-0.8,4.7l-3.3,4.8l-1.3,1.2l-4.4,3.1l-0.1,0.2l0.1,5
			l-0.6,2.6v0.9l0.5,1.5l0.1,0.7l-0.4,0.7l-0.3,0.3l-0.2,0.3l-0.1,0.3l0.1,1.1l0.1,0.2l0.1,0.2l0.1,0.1l0.1,0.1l0.5,0.5l0.2,0.4
			l0.1,0.4l-0.1,0.4l-0.2,0.2l-1,0.6l-0.1-0.1l-0.2-0.3l-0.2-0.1l-0.1-0.2v-0.2l-0.1-0.2l-0.1-0.3l-0.1-0.2l-0.1-0.1l-0.1-0.1
			l-0.1-0.1l-0.6-1l-0.2-0.2l-0.2-0.2l-0.7-0.3l-0.9-0.6l-0.2-0.1l-0.2-0.1h-0.2l-0.3,0.2l-0.3,0.1l-0.3-0.1l-0.2-0.2l-0.2-0.2
			l-0.3-0.3l-0.4-0.8l-0.1-0.4l-0.1-0.4v-0.4l-0.1-0.1l-0.3-0.2l-0.1-0.1l-3.3-3.2l-0.8-1.2l-0.2-0.4l-0.1-0.1l-0.2-0.1l-0.7-0.1
			l-0.2-0.1l-0.2-0.1l-0.2-0.2l-0.1-0.4l-0.1-0.3l-0.2-0.2l-0.4-0.2l-0.9-0.9l-0.2,0.3h-0.5h-0.2h-0.4H668l-0.2,0.1l-0.3,0.4
			l-0.2,0.1h-0.2l-0.2-0.1l-0.2,0.1l-0.1,0.1l-0.1,0.1v0.2l-0.1,0.2l-0.3,0.4l-0.2,0.1l-0.7-0.2h-0.1l-0.2,0.2l-0.1,0.1h-0.1
			l-0.2-0.1h-0.1l-0.7,0.2l-0.1,0.1L663,156l-0.1,0.1h-0.1l-0.1-0.1v-0.1h-0.1h-0.2h-0.2l-0.1,0.1l-0.1,0.2l-0.1,0.2h-0.1l-0.1-0.1
			h-0.1l-0.1,0.1l-0.2,0.2l0,0H661h-0.5h-0.3l-0.5,0.2l-0.2,0.3v0.5l0.2,1.1l0.6,1.9l0.1,0.2l0.1,0.2l0.2,0.2l0.2,0.1h0.2l0.1,0.1
			v0.2v0.3h-0.1l-0.2-0.1h-0.2l-0.1,0.1l-0.2,0.3l-0.1,0.2h-0.2h-0.2h-0.2l-0.1,0.3v0.2l0.2,0.4v0.2l-1-0.9c-1.7-2.5-3.4-5-5.1-7.4
			l-0.4-0.7l0.1-0.6l0.3-0.2l1.1-0.2l0.1-0.1l0.1-0.2l0.1-0.1h0.1l0.2,0.1h0.1l1.2-0.1l0.3-0.1l0.1-0.2v-0.4v-0.1l0.1-0.2V152
			l-0.1-0.2l-0.2-0.3l-0.1-0.2l-0.2-0.3l-0.1-0.3l-0.1-1.2l-0.1-0.2l-0.1-0.3l-0.2-0.2l-0.4-0.2l-0.2-0.2l-0.2-0.2l-0.1-0.1
			l-0.1-0.4l-0.5-0.6l-0.8-0.2l-1.9-0.2l-0.2,0.1l-0.3,0.4l-0.2,0.1h-0.2l-0.1-0.1h-0.2l-0.1,0.1l-0.1,0.3l-0.3,0.5l-0.2,0.4
			l-0.2,0.3l-0.3,0.2H649c-1.5-0.2-3-0.3-4.5-0.5l-0.7-0.2l-0.5-0.3c-2.7-2.4-5.5-4.8-8.2-7.2l-0.6-0.3l-1.4-0.1l-0.6-0.3l-0.2-0.3
			v-0.4c0-1.7,0.1-3.5,0.1-5.2l0.3-0.8l0.4,0.1l1.6,0.7l1.1,0.3l0.4,0.2h0.1l0.2-0.7l0.1-0.2l0.1-0.1l0.4,0.1l0.3,0.3l0.4,0.2
			l0.5-0.2l-0.4-0.4l-0.3-0.2l-0.3-0.1l-0.8-0.1l-0.4-0.1l-2.1-1l-0.6-0.5l-0.4-0.6l-0.1-0.9l-0.8-0.9l-1.1-0.7l-0.9-0.3l-0.7,0.1
			h-0.3l-0.4-0.2l-0.2-0.2v-0.1l0.1-0.1v-0.1v-0.1v-0.2l-0.1-0.1h-0.2h-2.6l-0.5-0.2l-0.3-0.5l0.1-0.3l0.2-0.4l0.1-0.4l-0.1-0.2
			l-0.4-0.1l-0.2-0.2l-0.2-0.3l-0.7-0.5l-0.3-0.3l-0.2-0.3l-0.2-0.4l-0.2-0.2l-0.4-0.3l-0.1-0.1v-0.2l0.2-0.4v-0.2l-0.2-0.2
			l-0.3-0.2l-0.3-0.2l-0.1-0.4v-0.4l-0.2-0.2l-0.3-0.1l-0.2-0.2v-0.2l0.2-0.3v-0.1l-0.1-0.2l-0.1-0.1l-0.1-0.1l-0.1-0.1l-0.2-0.4
			l-0.1-0.2l0.1-0.2l0.5-0.7l0.1-0.2l0.1-0.6l0.1-0.2l0.2-0.2v-0.2l-0.1-0.1l-0.8-1.1l-3.1-2.9l-0.6-1l-0.1-1l1.4-3.7l-0.1-0.6
			l-0.5-1.2v-0.6l0.2-0.3l0.3-0.2l0.2-0.3c0-0.5-0.1-1-0.1-1.5v-0.5l0.2-0.2l2.6,0.7h0.7l0.6-0.1l1.3-0.4h0.6l3,1.2h0.3l0.5-0.1
			c0.4-0.1,0.8-0.3,1.2-0.4h3l0.5-0.1l0.5-0.2c2-1.8,4-3.5,6-5.3l0.5-0.3l0.7-0.1c7.5-0.1,14.8-1.6,22.3-1.7c3.5,0,6.3-0.1,9.8-0.1
			l1,1.2v-0.8v-0.4l0.1-0.2l0.1-0.1l0.3-0.1h0.8c2.7,0.5,2.5-0.2,5.2,0.3h1.5l1.4-0.2l0.8-0.7l0.2-0.5l1.8-1l1.6-1.7l0.7-0.4
			l1.6-0.3l0.7-0.4l0.5-0.6l0.3-0.7l0.2-0.8l0.2-2l0.1-0.4l0.3-0.5l1.2-1.1v-0.1v-0.1v-0.1c0,0,0,0,0-0.1l0,0l-0.2-0.6l-0.1-0.6
			l0.1-0.6l1.9-4.3l0.3-0.5l0.4-0.4l0.5-0.3l0.9-0.4l0.3-0.3l0.2-0.5c0.1-2.7,0.1-5.3,0.1-8l0.1-0.2l0.3-0.4l0.1-0.2l-0.1-2v-0.4
			l0.1-0.4l0.2-0.1h0.2l0.3-0.2c0.1-7.3,0.3-14.7,0.4-22c0.1-7.3,0.3-14.7,0.4-22c7.4-1.3,14.8-2.6,22.2-3.9c2.7-0.5,5.4-1,8-1.4
			l0.9-0.3l0.9-0.6c5.6-4.8,11.3-9.7,16.9-14.6c5.4-4.7,10.8-9.2,16.3-13.7c6.5-3.8,12.9-7.7,19.4-11.5c6.6-3.9,13.1-7.8,19.7-11.7
			c6.5-3.9,13-7.8,19.5-11.7c6.4-3.8,12.9-7.7,19.3-11.6c4-2.4,8.1-4.9,12.1-7.3c7.2,1.9,14.5,3.8,21.7,5.7c2.7,0.7,5.4,1.4,8.1,2.1
			l2.3,1.3C890.7-58.3,894.6-54.7,898.5-51.1"/>
	</g>
</g>
<circle class="st6" cx="667.2" cy="131.6" r="4.6"/>
<g>
	<line class="st10" x1="663.1" y1="137.5" x2="662.4" y2="138.2"/>
	<line class="st11" x1="661.1" y1="139.6" x2="601.8" y2="200.8"/>
	<polyline class="st10" points="601.1,201.5 600.5,202.2 599.6,202.2 	"/>
	<line class="st12" x1="597.7" y1="202.2" x2="523.5" y2="202.2"/>
	<line class="st10" x1="522.6" y1="202.2" x2="521.7" y2="202.2"/>
</g>
<g>
	<line class="st13" x1="425.8" y1="66.4" x2="426.8" y2="66.4"/>
	<polyline class="st14" points="428.6,66.4 644.9,66.4 685.7,88.1 	"/>
	<line class="st13" x1="686.6" y1="88.5" x2="687.4" y2="89"/>
</g>
<rect x="432.5" y="-106.7" class="st0" width="60.6" height="13.1"/>
<g>
	<path class="st6" d="M441.2-101.7c0.4,0.3,0.5,0.8,0.5,1.3c0,0.6-0.2,1.1-0.5,1.4c-0.4,0.3-0.9,0.5-1.5,0.5h-1.1v1.5h-1v-5.2h2.1
		C440.3-102.2,440.8-102,441.2-101.7z M440.5-99.6c0.2-0.2,0.3-0.4,0.3-0.7c0-0.3-0.1-0.6-0.3-0.7c-0.2-0.2-0.5-0.2-0.9-0.2h-1.1
		v1.9h1.1C440-99.4,440.3-99.5,440.5-99.6z"/>
	<path class="st6" d="M446.3-101.9c0.4,0.2,0.8,0.6,1,1c0.2,0.4,0.4,0.9,0.4,1.4s-0.1,0.9-0.4,1.4c-0.2,0.4-0.6,0.7-1,1
		c-0.4,0.2-0.9,0.4-1.4,0.4s-1-0.1-1.4-0.4s-0.8-0.6-1-1s-0.4-0.9-0.4-1.4s0.1-0.9,0.4-1.4c0.2-0.4,0.6-0.7,1-1s0.9-0.3,1.4-0.3
		C445.4-102.2,445.9-102.1,446.3-101.9z M444-101.1c-0.3,0.2-0.5,0.4-0.6,0.6c-0.2,0.3-0.2,0.6-0.2,0.9s0.1,0.6,0.2,0.9
		c0.2,0.3,0.4,0.5,0.6,0.6c0.3,0.2,0.6,0.2,0.9,0.2c0.3,0,0.6-0.1,0.9-0.2c0.3-0.2,0.5-0.4,0.6-0.6c0.2-0.3,0.2-0.6,0.2-0.9
		s-0.1-0.6-0.2-0.9c-0.2-0.3-0.4-0.5-0.6-0.6c-0.3-0.2-0.6-0.2-0.9-0.2C444.6-101.3,444.3-101.3,444-101.1z"/>
	<path class="st6" d="M452.2-101.7c0.4,0.3,0.5,0.8,0.5,1.3c0,0.6-0.2,1.1-0.5,1.4c-0.4,0.3-0.9,0.5-1.5,0.5h-1.1v1.5h-1v-5.2h2.1
		C451.3-102.2,451.8-102,452.2-101.7z M451.5-99.6c0.2-0.2,0.3-0.4,0.3-0.7c0-0.3-0.1-0.6-0.3-0.7c-0.2-0.2-0.5-0.2-0.9-0.2h-1.1
		v1.9h1.1C451-99.4,451.3-99.5,451.5-99.6z"/>
	<path class="st6" d="M454.8-98.1c0.2,0.2,0.5,0.3,0.9,0.3c0.4,0,0.7-0.1,0.9-0.3c0.2-0.2,0.3-0.6,0.3-1v-3.1h1v3.1
		c0,0.5-0.1,0.8-0.3,1.2c-0.2,0.3-0.4,0.6-0.8,0.8c-0.3,0.2-0.7,0.3-1.2,0.3s-0.9-0.1-1.2-0.3c-0.3-0.2-0.6-0.4-0.8-0.8
		c-0.2-0.3-0.3-0.7-0.3-1.2v-3.1h1v3.1C454.5-98.7,454.6-98.4,454.8-98.1z"/>
	<path class="st6" d="M459.2-102.2h1v4.3h2.2v0.9h-3.2V-102.2z"/>
	<path class="st6" d="M467.1-97l-0.5-1.1h-2.5l-0.5,1.1h-1l2.3-5.2h1l2.3,5.2H467.1z M464.5-98.9h1.8l-0.9-2.2L464.5-98.9z"/>
	<path class="st6" d="M467.7-102.2h4.2v0.9h-1.6v4.3h-1v-4.3h-1.6V-102.2z"/>
	<path class="st6" d="M472.6-102.2h1v5.2h-1V-102.2z"/>
	<path class="st6" d="M478.7-101.9c0.4,0.2,0.8,0.6,1,1c0.2,0.4,0.4,0.9,0.4,1.4s-0.1,0.9-0.4,1.4c-0.2,0.4-0.6,0.7-1,1
		c-0.4,0.2-0.9,0.4-1.4,0.4s-1-0.1-1.4-0.4s-0.8-0.6-1-1s-0.4-0.9-0.4-1.4s0.1-0.9,0.4-1.4c0.2-0.4,0.6-0.7,1-1s0.9-0.3,1.4-0.3
		C477.8-102.2,478.3-102.1,478.7-101.9z M476.4-101.1c-0.3,0.2-0.5,0.4-0.6,0.6c-0.2,0.3-0.2,0.6-0.2,0.9s0.1,0.6,0.2,0.9
		c0.2,0.3,0.4,0.5,0.6,0.6c0.3,0.2,0.6,0.2,0.9,0.2c0.3,0,0.6-0.1,0.9-0.2c0.3-0.2,0.5-0.4,0.6-0.6c0.2-0.3,0.2-0.6,0.2-0.9
		s-0.1-0.6-0.2-0.9c-0.2-0.3-0.4-0.5-0.6-0.6c-0.2-0.1-0.6-0.2-0.9-0.2C477-101.3,476.7-101.3,476.4-101.1z"/>
	<path class="st6" d="M484.6-102.2h1v5.2h-0.9l-2.7-3.6v3.6h-1v-5.2h0.9l2.7,3.6V-102.2z"/>
</g>
<g>
	<path d="M603.9-67.9c-0.2-0.1-0.4-0.1-0.5-0.1c-0.3,0-0.5,0.1-0.6,0.2c-0.2,0.1-0.2,0.3-0.2,0.4c0,0.2,0,0.3,0.1,0.4
		c0.1,0.1,0.2,0.2,0.3,0.2c0.1,0.1,0.3,0.1,0.5,0.2c0.3,0.1,0.5,0.2,0.6,0.2c0.2,0.1,0.3,0.2,0.4,0.3c0.1,0.1,0.2,0.3,0.2,0.6
		c0,0.2-0.1,0.4-0.2,0.6s-0.3,0.3-0.5,0.4s-0.5,0.1-0.7,0.1c-0.3,0-0.5-0.1-0.8-0.2s-0.5-0.3-0.7-0.4l0.2-0.3
		c0.2,0.2,0.4,0.3,0.6,0.4c0.2,0.1,0.5,0.1,0.7,0.1c0.3,0,0.5-0.1,0.7-0.2s0.3-0.3,0.3-0.5s0-0.3-0.1-0.4c-0.1-0.1-0.2-0.2-0.3-0.2
		c-0.1-0.1-0.3-0.1-0.5-0.2c-0.3-0.1-0.5-0.2-0.6-0.2c-0.2-0.1-0.3-0.2-0.4-0.3c-0.1-0.1-0.2-0.3-0.2-0.6c0-0.2,0.1-0.4,0.2-0.5
		c0.1-0.1,0.3-0.3,0.5-0.3c0.2-0.1,0.4-0.1,0.7-0.1c0.2,0,0.4,0,0.6,0.1s0.4,0.1,0.6,0.3l-0.2,0.3C604.3-67.8,604.1-67.8,603.9-67.9
		z"/>
	<path d="M608.3-68.1c0.3,0.2,0.6,0.4,0.7,0.7c0.2,0.3,0.3,0.6,0.3,1s-0.1,0.7-0.3,1s-0.4,0.5-0.7,0.7s-0.7,0.3-1,0.3
		s-0.7-0.1-1-0.3c-0.3-0.2-0.6-0.4-0.7-0.7c-0.2-0.3-0.3-0.6-0.3-1s0.1-0.7,0.3-1c0.2-0.3,0.4-0.5,0.7-0.7s0.7-0.3,1-0.3
		S608-68.2,608.3-68.1z M606.5-67.8c-0.3,0.1-0.5,0.3-0.6,0.6c-0.1,0.2-0.2,0.5-0.2,0.8s0.1,0.6,0.2,0.8c0.1,0.3,0.3,0.5,0.6,0.6
		s0.5,0.2,0.8,0.2s0.6-0.1,0.8-0.2c0.3-0.1,0.5-0.3,0.6-0.6c0.1-0.3,0.2-0.5,0.2-0.8s-0.1-0.6-0.2-0.8c-0.1-0.2-0.3-0.4-0.6-0.6
		c-0.3-0.1-0.5-0.2-0.8-0.2S606.7-67.9,606.5-67.8z"/>
	<path d="M610.8-65.1c0.2,0.2,0.5,0.3,0.9,0.3c0.4,0,0.7-0.1,0.9-0.3c0.2-0.2,0.3-0.5,0.3-0.9v-2.3h0.4v2.3c0,0.5-0.1,0.9-0.4,1.2
		c-0.3,0.3-0.7,0.4-1.2,0.4s-0.9-0.1-1.2-0.4s-0.4-0.7-0.4-1.2v-2.3h0.4v2.3C610.5-65.6,610.6-65.3,610.8-65.1z"/>
	<path d="M617-64.4l-0.8-1.3c-0.1,0-0.2,0-0.3,0h-1.1v1.3h-0.4v-3.9h1.5c0.5,0,0.9,0.1,1.1,0.3c0.3,0.2,0.4,0.5,0.4,1
		c0,0.3-0.1,0.6-0.2,0.8c-0.2,0.2-0.4,0.4-0.7,0.5l0.9,1.3C617.4-64.4,617-64.4,617-64.4z M615.9-66c0.4,0,0.7-0.1,0.9-0.3
		c0.2-0.2,0.3-0.4,0.3-0.7c0-0.3-0.1-0.5-0.3-0.7s-0.5-0.2-0.9-0.2h-1.1v1.9C614.8-66,615.9-66,615.9-66z"/>
	<path d="M620.8-67.9c-0.2-0.1-0.4-0.1-0.6-0.1c-0.3,0-0.6,0.1-0.8,0.2c-0.3,0.1-0.4,0.3-0.6,0.6c-0.1,0.3-0.2,0.5-0.2,0.8
		s0.1,0.6,0.2,0.8c0.1,0.2,0.3,0.4,0.6,0.6c0.3,0.1,0.5,0.2,0.8,0.2c0.2,0,0.4,0,0.6-0.1s0.4-0.2,0.5-0.3l0.2,0.3
		c-0.2,0.2-0.4,0.3-0.7,0.4c-0.2,0.1-0.5,0.2-0.8,0.2c-0.4,0-0.7-0.1-1-0.3c-0.3-0.2-0.6-0.4-0.7-0.7c-0.2-0.3-0.3-0.6-0.3-1
		s0.1-0.7,0.3-1s0.4-0.5,0.7-0.7s0.6-0.3,1-0.3c0.3,0,0.5,0,0.8,0.1c0.2,0.1,0.5,0.2,0.6,0.4l-0.2,0.3
		C621.2-67.7,621-67.8,620.8-67.9z"/>
	<path d="M622.4-68.3h2.6v0.3h-2.2v1.4h2v0.3h-2v1.5h2.3v0.3h-2.7V-68.3L622.4-68.3z"/>
	<path d="M627.7-66.4c0,0,0.1,0.1,0.1,0.2s0,0.1-0.1,0.2c0,0.1-0.1,0.1-0.2,0.1s-0.1,0-0.2-0.1c0,0-0.1-0.1-0.1-0.2s0-0.1,0.1-0.2
		c0,0,0.1-0.1,0.2-0.1S627.6-66.5,627.7-66.4z M627.7-64.8c0,0,0.1,0.1,0.1,0.2s0,0.1-0.1,0.2c0,0.1-0.1,0.1-0.2,0.1s-0.1,0-0.2-0.1
		c0,0-0.1-0.1-0.1-0.2s0-0.1,0.1-0.2c0,0,0.1-0.1,0.2-0.1S627.6-64.8,627.7-64.8z"/>
	<path d="M632.7-68c0.2,0.2,0.3,0.4,0.3,0.7c0,0.2-0.1,0.4-0.2,0.6c-0.1,0.2-0.3,0.3-0.5,0.3c0.3,0,0.5,0.1,0.7,0.3
		c0.2,0.2,0.2,0.4,0.2,0.7c0,0.3-0.1,0.6-0.4,0.8c-0.2,0.2-0.6,0.3-1,0.3h-1.6v-3.9h1.6C632.2-68.3,632.5-68.2,632.7-68z
		 M632.4-66.8c0.2-0.1,0.2-0.3,0.2-0.5s-0.1-0.4-0.2-0.5c-0.2-0.1-0.4-0.2-0.6-0.2h-1.2v1.4h1.2C632.1-66.6,632.3-66.6,632.4-66.8z
		 M632.6-64.9c0.2-0.1,0.3-0.3,0.3-0.6c0-0.2-0.1-0.4-0.3-0.5c-0.2-0.1-0.4-0.2-0.8-0.2h-1.2v1.5h1.2
		C632.1-64.7,632.4-64.8,632.6-64.9z"/>
	<path d="M637.1-64.4l-0.5-1h-2.2l-0.5,1h-0.4l1.8-3.9h0.4l1.8,3.9H637.1z M634.6-65.8h1.9l-0.9-2.1L634.6-65.8z"/>
	<path d="M641-68.3h0.4v3.9H641l-2.4-3.3v3.3h-0.4v-3.9h0.4L641-65V-68.3z"/>
	<path d="M646.5-64.1c-0.1,0.1-0.3,0.2-0.5,0.3s-0.3,0.1-0.5,0.1c-0.4,0-0.8-0.2-1.2-0.7h-0.1c-0.4,0-0.7-0.1-1-0.3
		c-0.3-0.2-0.6-0.4-0.7-0.7c-0.2-0.3-0.3-0.6-0.3-1s0.1-0.7,0.3-1c0.2-0.3,0.4-0.5,0.7-0.7c0.3-0.2,0.7-0.3,1-0.3
		c0.3,0,0.7,0.1,1,0.3c0.3,0.2,0.6,0.4,0.7,0.7c0.2,0.3,0.3,0.6,0.3,1c0,0.3-0.1,0.6-0.2,0.9c-0.1,0.3-0.3,0.5-0.6,0.7
		c-0.2,0.2-0.5,0.3-0.8,0.4c0.3,0.3,0.6,0.5,0.8,0.5s0.5-0.1,0.8-0.4L646.5-64.1z M642.8-65.5c0.1,0.3,0.3,0.5,0.6,0.6
		c0.3,0.1,0.5,0.2,0.8,0.2c0.3,0,0.6-0.1,0.8-0.2c0.3-0.1,0.5-0.3,0.6-0.6c0.1-0.3,0.2-0.5,0.2-0.8s-0.1-0.6-0.2-0.8
		c-0.1-0.2-0.3-0.4-0.6-0.6c-0.3-0.1-0.5-0.2-0.8-0.2c-0.3,0-0.6,0.1-0.8,0.2c-0.3,0.1-0.5,0.3-0.6,0.6c-0.1,0.2-0.2,0.5-0.2,0.8
		S642.7-65.8,642.8-65.5z"/>
	<path d="M647.8-65.1c0.2,0.2,0.5,0.3,0.9,0.3c0.4,0,0.7-0.1,0.9-0.3c0.2-0.2,0.3-0.5,0.3-0.9v-2.3h0.4v2.3c0,0.5-0.1,0.9-0.4,1.2
		c-0.3,0.3-0.7,0.4-1.2,0.4s-0.9-0.1-1.2-0.4s-0.4-0.7-0.4-1.2v-2.3h0.4v2.3C647.5-65.6,647.6-65.3,647.8-65.1z"/>
	<path d="M651.5-68.3h2.6v0.3h-2.2v1.4h2v0.3h-2v1.5h2.3v0.3h-2.7V-68.3L651.5-68.3z"/>
	<path d="M656.6-68.3h0.5l1.5,2.9l1.5-2.9h0.5v3.9h-0.4v-3.4l-1.5,2.9h-0.2l-1.5-2.9v3.4h-0.4V-68.3z"/>
	<path d="M664.5-68.1c0.3,0.2,0.6,0.4,0.7,0.7c0.2,0.3,0.3,0.6,0.3,1s-0.1,0.7-0.3,1s-0.4,0.5-0.7,0.7c-0.3,0.2-0.7,0.3-1,0.3
		s-0.7-0.1-1-0.3c-0.3-0.2-0.6-0.4-0.7-0.7c-0.2-0.3-0.3-0.6-0.3-1s0.1-0.7,0.3-1s0.4-0.5,0.7-0.7c0.3-0.2,0.7-0.3,1-0.3
		S664.2-68.2,664.5-68.1z M662.7-67.8c-0.3,0.1-0.5,0.3-0.6,0.6c-0.1,0.2-0.2,0.5-0.2,0.8s0.1,0.6,0.2,0.8c0.1,0.3,0.3,0.5,0.6,0.6
		s0.5,0.2,0.8,0.2s0.6-0.1,0.8-0.2c0.3-0.1,0.5-0.3,0.6-0.6c0.1-0.3,0.2-0.5,0.2-0.8s-0.1-0.6-0.2-0.8c-0.1-0.2-0.3-0.4-0.6-0.6
		c-0.3-0.1-0.5-0.2-0.8-0.2S662.9-67.9,662.7-67.8z"/>
	<path d="M669.2-68.3h0.4v3.9h-0.4l-2.4-3.3v3.3h-0.4v-3.9h0.4l2.4,3.3V-68.3z"/>
	<path d="M673.4-68c0.3,0.2,0.5,0.4,0.7,0.7c0.2,0.3,0.3,0.6,0.3,1s-0.1,0.7-0.3,1c-0.2,0.3-0.4,0.5-0.7,0.7c-0.3,0.2-0.7,0.3-1,0.3
		h-1.6v-3.9h1.6C672.8-68.3,673.1-68.2,673.4-68z M673.2-65c0.2-0.1,0.4-0.3,0.6-0.6c0.1-0.2,0.2-0.5,0.2-0.8s-0.1-0.6-0.2-0.8
		c-0.1-0.2-0.3-0.4-0.6-0.6c-0.2-0.1-0.5-0.2-0.8-0.2h-1.2v3.2h1.2C672.7-64.7,673-64.8,673.2-65z"/>
	<path d="M675.2-68.3h0.4v3.9h-0.4V-68.3z"/>
	<path d="M679.8-64.4l-0.5-1h-2.2l-0.5,1h-0.4l1.8-3.9h0.4l1.8,3.9H679.8z M677.3-65.8h1.9l-0.9-2.1L677.3-65.8z"/>
	<path d="M680.8-68.3h0.4v3.6h1.7v0.3h-2.1V-68.3z"/>
	<path d="M683.7-68.3h2.6v0.3h-2.2v1.4h2v0.3h-2v1.5h2.3v0.3h-2.7L683.7-68.3L683.7-68.3z"/>
	<path d="M691.2-64.7v0.3h-2.8v-0.3l1.5-1.6c0.2-0.2,0.3-0.4,0.4-0.5c0.1-0.2,0.2-0.3,0.2-0.5s-0.1-0.4-0.2-0.5
		c-0.2-0.1-0.4-0.2-0.6-0.2s-0.4,0-0.6,0.1c-0.2,0.1-0.4,0.2-0.5,0.3l-0.2-0.3c0.2-0.2,0.4-0.3,0.6-0.4s0.5-0.1,0.7-0.1
		c0.4,0,0.7,0.1,0.9,0.3c0.2,0.2,0.3,0.4,0.3,0.7c0,0.2-0.1,0.4-0.2,0.6c-0.1,0.2-0.3,0.4-0.5,0.7l-1.3,1.4H691.2z"/>
	<path d="M694.7-67.8c0.3,0.3,0.4,0.8,0.4,1.5c0,0.6-0.1,1.1-0.4,1.5c-0.3,0.3-0.7,0.5-1.2,0.5s-0.9-0.2-1.2-0.5s-0.4-0.8-0.4-1.5
		c0-0.6,0.1-1.1,0.4-1.5c0.3-0.3,0.7-0.5,1.2-0.5S694.4-68.2,694.7-67.8z M692.6-67.6c-0.2,0.3-0.3,0.7-0.3,1.2s0.1,1,0.3,1.2
		c0.2,0.3,0.5,0.4,0.9,0.4s0.7-0.1,0.9-0.4c0.2-0.3,0.3-0.7,0.3-1.2s-0.1-1-0.3-1.2c-0.2-0.3-0.5-0.4-0.9-0.4S692.8-67.9,692.6-67.6
		z"/>
	<path d="M695.4-68.3h1.3v3.9h-0.4V-68h-0.9V-68.3z"/>
	<path d="M697.5-68.3h2.9v0.3l-1.8,3.6h-0.4L700-68h-2.1v0.6h-0.4V-68.3z"/>
</g>
<g>
	<path d="M440.6-77v2.2H431v-1.8l4.9-5.1c0.5-0.5,0.8-0.9,1.1-1.4s0.4-0.9,0.4-1.2c0-0.5-0.2-0.8-0.6-1.1c-0.4-0.3-0.9-0.4-1.5-0.4
		c-0.6,0-1.2,0.1-1.8,0.4s-1.3,0.7-1.8,1.2l-1-1.9c0.8-0.6,1.6-1.1,2.4-1.4c0.8-0.3,1.7-0.5,2.6-0.5s1.6,0.1,2.3,0.4
		s1.2,0.7,1.5,1.2c0.4,0.5,0.5,1.1,0.5,1.7s-0.2,1.3-0.7,2c-0.4,0.7-1,1.5-1.8,2.3l-3.3,3.3h6.4C440.6-77.1,440.6-77,440.6-77z"/>
	<path d="M452-86.2c1,1.1,1.4,2.8,1.4,4.9s-0.5,3.7-1.4,4.9c-1,1.1-2.3,1.7-4.1,1.7c-1.8,0-3.2-0.6-4.1-1.7c-1-1.1-1.4-2.8-1.4-4.9
		s0.5-3.8,1.4-4.9c1-1.1,2.3-1.7,4.1-1.7C449.6-87.9,451-87.3,452-86.2z M445.5-84.8c-0.5,0.7-0.7,1.9-0.7,3.5s0.2,2.8,0.7,3.5
		c0.5,0.8,1.3,1.1,2.3,1.1s1.8-0.4,2.3-1.1c0.5-0.8,0.7-1.9,0.7-3.5s-0.2-2.8-0.7-3.5s-1.3-1.1-2.3-1.1S446-85.6,445.5-84.8z"/>
	<path d="M457.3-76.9c0.2,0.2,0.4,0.6,0.4,0.9c0,0.2,0,0.4-0.1,0.5s-0.1,0.3-0.3,0.5l-1.2,2.2H455l0.8-2.2c-0.4-0.2-0.6-0.6-0.6-1.1
		c0-0.4,0.1-0.7,0.4-0.9c0.2-0.2,0.5-0.4,0.9-0.4C456.8-77.3,457.1-77.2,457.3-76.9z"/>
	<path d="M466.7-85.7c-0.5-0.1-1-0.2-1.5-0.2c-1.2,0-2,0.4-2.6,1.2s-0.9,1.8-0.8,3.2c0.3-0.6,0.8-1,1.4-1.3c0.6-0.3,1.3-0.4,2.1-0.4
		c1.3,0,2.3,0.4,3.1,1.1c0.8,0.8,1.1,1.8,1.1,3c0,0.9-0.2,1.7-0.6,2.3c-0.4,0.7-0.9,1.2-1.6,1.5c-0.7,0.4-1.5,0.5-2.4,0.5
		c-1.1,0-2.1-0.3-2.9-0.8c-0.8-0.5-1.4-1.2-1.8-2.2s-0.6-2.1-0.6-3.4c0-1.4,0.2-2.6,0.7-3.6s1.1-1.8,2-2.4s1.9-0.8,3-0.8
		c0.7,0,1.4,0.1,2.1,0.3c0.7,0.2,1.3,0.4,1.9,0.7l-1.3,1.9C467.6-85.3,467.2-85.5,466.7-85.7z M462.8-80.7c-0.5,0.4-0.7,1-0.7,1.7
		c0,0.4,0.1,0.7,0.3,1.1c0.2,0.3,0.5,0.6,0.8,0.8c0.4,0.2,0.8,0.3,1.4,0.3c0.7,0,1.3-0.2,1.8-0.6c0.4-0.4,0.7-1,0.7-1.7
		s-0.2-1.2-0.6-1.6c-0.4-0.4-1-0.6-1.7-0.6C463.9-81.3,463.2-81.1,462.8-80.7z"/>
	<path d="M470.4-87.8h10v1.9L475-74.8h-2.6l5.2-10.8h-5v1.8h-2.2V-87.8z"/>
	<path class="st0" d="M487.5-87.8h1.6l5.1,9.8l5-9.8h1.6v13h-1.2V-86l-5.1,9.8h-0.7l-5.1-9.8v11.2h-1.2
		C487.5-74.8,487.5-87.8,487.5-87.8z"/>
	<path class="st0" d="M504.9-87.8h1.3v13h-1.3V-87.8z"/>
	<path class="st0" d="M510.3-87.8h1.3V-76h5.7v1.2h-7V-87.8z"/>
	<path class="st0" d="M519.8-87.8h1.3V-76h5.7v1.2h-7V-87.8z"/>
	<path class="st0" d="M529.3-87.8h1.3v13h-1.3V-87.8z"/>
	<path class="st0" d="M543.6-87c1,0.6,1.9,1.4,2.5,2.4c0.6,1,0.9,2.1,0.9,3.3c0,1.2-0.3,2.3-0.9,3.3c-0.6,1-1.4,1.8-2.5,2.4
		c-1.1,0.6-2.2,0.9-3.4,0.9s-2.4-0.3-3.4-0.9s-1.9-1.4-2.5-2.4c-0.6-1-0.9-2.1-0.9-3.3c0-1.2,0.3-2.3,0.9-3.3c0.6-1,1.4-1.8,2.5-2.4
		c1-0.6,2.2-0.9,3.4-0.9C541.5-87.9,542.6-87.6,543.6-87z M537.5-86c-0.8,0.5-1.5,1.1-2,2c-0.5,0.8-0.7,1.7-0.7,2.7s0.2,1.9,0.7,2.8
		c0.5,0.8,1.2,1.5,2,2s1.8,0.7,2.8,0.7s1.9-0.2,2.7-0.7s1.5-1.2,2-2s0.7-1.8,0.7-2.8s-0.2-1.9-0.7-2.7c-0.5-0.8-1.2-1.5-2-2
		s-1.7-0.7-2.7-0.7S538.3-86.5,537.5-86z"/>
	<path class="st0" d="M559.3-87.8h1.3v13h-1.4l-8-11v11h-1.3v-13h1.4l8.1,11v-11H559.3z"/>
	<path class="st0" d="M570.1-86.4c-0.6-0.2-1.2-0.3-1.8-0.3c-0.9,0-1.6,0.2-2.1,0.5c-0.5,0.4-0.8,0.8-0.8,1.4c0,0.5,0.1,1,0.4,1.3
		s0.7,0.6,1.1,0.8c0.4,0.2,1,0.4,1.8,0.6c0.9,0.3,1.6,0.5,2.1,0.8s1,0.6,1.4,1.1c0.4,0.5,0.6,1.1,0.6,1.9c0,0.7-0.2,1.3-0.6,1.8
		c-0.4,0.5-0.9,0.9-1.6,1.2c-0.7,0.3-1.5,0.4-2.4,0.4c-0.9,0-1.8-0.2-2.6-0.5c-0.9-0.4-1.6-0.8-2.2-1.4l0.6-1.1c0.6,0.6,1.3,1,2,1.3
		c0.8,0.3,1.5,0.5,2.3,0.5c1,0,1.8-0.2,2.4-0.6c0.6-0.4,0.9-0.9,0.9-1.6c0-0.5-0.1-1-0.4-1.3s-0.7-0.6-1.1-0.8
		c-0.4-0.2-1-0.4-1.8-0.7c-0.9-0.3-1.6-0.5-2.1-0.8c-0.5-0.2-1-0.6-1.4-1.1s-0.6-1.1-0.6-1.9c0-0.7,0.2-1.2,0.6-1.7
		c0.4-0.5,0.9-0.9,1.6-1.1c0.7-0.3,1.4-0.4,2.3-0.4c0.7,0,1.4,0.1,2.1,0.3c0.7,0.2,1.3,0.5,1.9,0.8l-0.6,1.1
		C571.3-86,570.7-86.3,570.1-86.4z"/>
	<path class="st0" d="M589.6-86.9c1,0.6,1.8,1.4,2.4,2.4s0.9,2.1,0.9,3.3c0,1.2-0.3,2.3-0.9,3.3s-1.4,1.8-2.4,2.3
		c-1,0.6-2.2,0.9-3.4,0.9H581v-13h5.2C587.5-87.8,588.6-87.5,589.6-86.9z M589-76.7c0.8-0.5,1.5-1.1,1.9-1.9
		c0.5-0.8,0.7-1.7,0.7-2.7s-0.2-1.9-0.7-2.7c-0.5-0.8-1.1-1.5-2-1.9c-0.8-0.5-1.7-0.7-2.7-0.7h-3.9V-76h4
		C587.3-76,588.2-76.2,589-76.7z"/>
	<path class="st0" d="M596.1-88.4c0.2,0.2,0.2,0.4,0.2,0.6s-0.1,0.4-0.2,0.7l-0.9,2.1h-0.7l0.7-2.1c-0.1-0.1-0.3-0.2-0.3-0.3
		c-0.1-0.1-0.1-0.3-0.1-0.4c0-0.2,0.1-0.4,0.2-0.6s0.4-0.2,0.6-0.2C595.8-88.6,596-88.5,596.1-88.4z"/>
	<path class="st0" d="M599.3-87.8h1.3v5.9h8.1v-5.9h1.3v13h-1.3v-5.9h-8.1v5.9h-1.3V-87.8z"/>
	<path class="st0" d="M623.8-74.8l-1.5-3.5h-7.2l-1.5,3.5h-1.4l5.9-13h1.3l5.9,13H623.8z M615.6-79.4h6.2l-3.1-7L615.6-79.4z"/>
	<path class="st0" d="M635.8-86.9c0.7,0.6,1.1,1.4,1.1,2.4c0,0.8-0.2,1.4-0.6,1.9c-0.4,0.5-1,0.9-1.8,1c1,0.1,1.7,0.5,2.2,1.1
		s0.8,1.3,0.8,2.2c0,1.1-0.4,2-1.2,2.6s-2,0.9-3.5,0.9h-5.5v-13h5.4C634.1-87.8,635.1-87.5,635.8-86.9z M634.9-82.7
		c0.5-0.4,0.8-1,0.8-1.7s-0.3-1.3-0.8-1.7c-0.5-0.4-1.2-0.6-2.1-0.6h-4.1v4.6h4.1C633.6-82.1,634.4-82.3,634.9-82.7z M635.3-76.6
		c0.6-0.4,0.9-1.1,0.9-1.8c0-0.8-0.3-1.4-0.9-1.8c-0.6-0.4-1.5-0.7-2.6-0.7h-4.1v5h4.1C633.8-76,634.7-76.2,635.3-76.6z"/>
	<path class="st0" d="M640.7-87.8h1.3v13h-1.3V-87.8z"/>
	<path class="st0" d="M644.2-87.8h9.9v1.2h-4.3v11.8h-1.3v-11.8h-4.3L644.2-87.8L644.2-87.8z"/>
	<path class="st0" d="M664.8-74.8l-1.5-3.5h-7.2l-1.5,3.5h-1.4l5.9-13h1.3l5.9,13H664.8z M656.6-79.4h6.2l-3.1-7L656.6-79.4z"/>
	<path class="st0" d="M677.8-87.8h1.3v13h-1.4l-8-11v11h-1.3v-13h1.4l8.1,11v-11H677.8z"/>
	<path class="st0" d="M681.3-87.8h9.9v1.2h-4.3v11.8h-1.3v-11.8h-4.3L681.3-87.8L681.3-87.8z"/>
	<path class="st0" d="M698.9-86.4c-0.6-0.2-1.2-0.3-1.8-0.3c-0.9,0-1.6,0.2-2.1,0.5c-0.5,0.4-0.8,0.8-0.8,1.4c0,0.5,0.1,1,0.4,1.3
		c0.3,0.3,0.7,0.6,1.1,0.8c0.4,0.2,1,0.4,1.8,0.6c0.9,0.3,1.6,0.5,2.1,0.8s1,0.6,1.4,1.1s0.6,1.1,0.6,1.9c0,0.7-0.2,1.3-0.6,1.8
		s-0.9,0.9-1.6,1.2c-0.7,0.3-1.5,0.4-2.4,0.4s-1.8-0.2-2.6-0.5c-0.9-0.4-1.6-0.8-2.2-1.4l0.6-1.1c0.6,0.6,1.3,1,2,1.3
		c0.8,0.3,1.5,0.5,2.3,0.5c1,0,1.8-0.2,2.4-0.6c0.6-0.4,0.9-0.9,0.9-1.6c0-0.5-0.1-1-0.4-1.3c-0.3-0.3-0.7-0.6-1.1-0.8
		c-0.4-0.2-1-0.4-1.8-0.7c-0.9-0.3-1.6-0.5-2.1-0.8c-0.5-0.2-1-0.6-1.4-1.1s-0.6-1.1-0.6-1.9c0-0.7,0.2-1.2,0.6-1.7s0.9-0.9,1.6-1.1
		c0.7-0.3,1.4-0.4,2.3-0.4c0.7,0,1.4,0.1,2.1,0.3c0.7,0.2,1.3,0.5,1.9,0.8l-0.6,1.1C700.1-86,699.5-86.3,698.9-86.4z"/>
</g>
<g>
	<line class="st13" x1="436.9" y1="-58.5" x2="437.8" y2="-58.5"/>
	<line class="st15" x1="439.7" y1="-58.5" x2="701.3" y2="-58.5"/>
	<polyline class="st13" points="702.3,-58.5 703.2,-58.5 703.8,-57.8 	"/>
	<line class="st16" x1="705" y1="-56.3" x2="747.2" y2="-4.9"/>
	<line class="st13" x1="747.8" y1="-4.2" x2="748.4" y2="-3.4"/>
</g>
<rect x="390.7" y="-42.5" class="st0" width="41.8" height="13.1"/>
<g>
	<path class="st6" d="M399.3-37.7c0.4,0.2,0.7,0.5,1,0.9c0.2,0.4,0.3,0.8,0.3,1.3s-0.1,0.9-0.4,1.3c-0.2,0.4-0.6,0.7-1,0.9
		c-0.4,0.2-0.9,0.3-1.4,0.3h-2.1v-5h2.2C398.4-38,398.9-37.9,399.3-37.7z M398.8-33.9c0.3-0.1,0.5-0.3,0.6-0.6s0.2-0.6,0.2-0.9
		c0-0.3-0.1-0.6-0.2-0.9c-0.1-0.3-0.4-0.5-0.6-0.6c-0.3-0.1-0.6-0.2-0.9-0.2h-1.2v3.4h1.2C398.2-33.7,398.5-33.7,398.8-33.9z"/>
	<path class="st6" d="M401.5-38h3.8v0.9h-2.8v1.3h2.5v0.9h-2.5v1.3h2.9v0.9h-3.9V-38z"/>
	<path class="st6" d="M410-38h1v5.2h-1l-2.7-3.6v3.6h-1V-38h0.9l2.7,3.6V-38H410z"/>
	<path class="st6" d="M414.7-37c-0.3-0.1-0.5-0.1-0.7-0.1s-0.4,0-0.6,0.1c-0.1,0.1-0.2,0.2-0.2,0.4c0,0.1,0,0.3,0.1,0.4
		c0.1,0.1,0.2,0.2,0.4,0.2c0.1,0.1,0.3,0.1,0.6,0.2c0.4,0.1,0.6,0.2,0.9,0.3c0.2,0.1,0.4,0.3,0.6,0.5c0.2,0.2,0.2,0.5,0.2,0.8
		s-0.1,0.6-0.3,0.8c-0.2,0.2-0.4,0.4-0.7,0.5s-0.6,0.2-1,0.2s-0.8-0.1-1.2-0.2c-0.4-0.2-0.7-0.4-1-0.6l0.4-0.8
		c0.3,0.2,0.6,0.4,0.9,0.6c0.3,0.1,0.6,0.2,0.9,0.2s0.5-0.1,0.7-0.2c0.2-0.1,0.2-0.3,0.2-0.4c0-0.1,0-0.3-0.1-0.4
		c-0.1-0.1-0.2-0.2-0.4-0.2c-0.1-0.1-0.4-0.1-0.6-0.2c-0.4-0.1-0.6-0.2-0.9-0.3c-0.2-0.1-0.4-0.2-0.6-0.5c-0.2-0.2-0.2-0.5-0.2-0.8
		s0.1-0.6,0.2-0.8c0.2-0.2,0.4-0.4,0.7-0.5s0.6-0.2,1-0.2c0.3,0,0.7,0,1,0.1s0.6,0.2,0.9,0.4l-0.4,0.9C415.3-36.8,415-36.9,414.7-37
		z"/>
	<path class="st6" d="M416.9-38h1v5.2h-1C416.9-32.8,416.9-38,416.9-38z"/>
	<path class="st6" d="M418.6-38h4.2v0.9h-1.6v4.3h-1v-4.3h-1.6C418.6-37.1,418.6-38,418.6-38z"/>
	<path class="st6" d="M423.6-38h3.8v0.9h-2.8v1.3h2.5v0.9h-2.5v1.3h2.9v0.9h-3.9V-38z M425.8-39.6l0.9,0.4l-1,0.8l-0.8-0.1
		L425.8-39.6z"/>
</g>
<g>
	<path d="M392.3-23.6h5.2v13H395v-10.8h-2.7V-23.6z"/>
	<path d="M407.6-21.5c-0.5-0.1-1-0.2-1.5-0.2c-1.2,0-2,0.4-2.6,1.2s-0.9,1.8-0.8,3.2c0.3-0.6,0.8-1,1.4-1.3s1.3-0.4,2.1-0.4
		c1.3,0,2.3,0.4,3.1,1.1c0.8,0.8,1.1,1.8,1.1,3c0,0.9-0.2,1.7-0.6,2.3c-0.4,0.7-0.9,1.2-1.6,1.5c-0.7,0.4-1.5,0.5-2.4,0.5
		c-1.1,0-2.1-0.3-2.9-0.8c-0.8-0.5-1.4-1.2-1.8-2.2s-0.6-2.1-0.6-3.4c0-1.4,0.2-2.6,0.7-3.6s1.1-1.8,2-2.4c0.9-0.6,1.9-0.8,3-0.8
		c0.7,0,1.4,0.1,2.1,0.3c0.7,0.2,1.3,0.4,1.9,0.7l-0.9,1.9C408.6-21.2,408.2-21.4,407.6-21.5z M403.7-16.5c-0.5,0.4-0.7,1-0.7,1.7
		c0,0.4,0.1,0.7,0.3,1.1c0.2,0.3,0.5,0.6,0.8,0.8c0.4,0.2,0.8,0.3,1.4,0.3c0.7,0,1.3-0.2,1.8-0.6c0.4-0.4,0.7-1,0.7-1.7
		s-0.2-1.2-0.6-1.6c-0.4-0.4-1-0.6-1.7-0.6C404.8-17.2,404.2-16.9,403.7-16.5z"/>
	<path class="st0" d="M417.8-23.6h1.2v5.9h8.1v-5.9h1.3v13h-1.3v-5.9H419v5.9h-1.3L417.8-23.6L417.8-23.6z"/>
	<path class="st0" d="M442.2-10.6l-1.5-3.5h-7.2l-1.5,3.5h-1.4l5.9-13h1.3l5.9,13H442.2z M434-15.2h6.2l-3.1-7L434-15.2z"/>
	<path class="st0" d="M454.3-22.8c0.7,0.6,1.1,1.4,1.1,2.4c0,0.8-0.2,1.4-0.6,1.9c-0.4,0.5-1,0.9-1.8,1c1,0.1,1.7,0.5,2.2,1.1
		s0.8,1.3,0.8,2.2c0,1.1-0.4,2-1.2,2.6c-0.8,0.6-2,0.9-3.5,0.9h-5.5v-13h5.4C452.5-23.6,453.5-23.3,454.3-22.8z M453.3-18.5
		c0.5-0.4,0.8-1,0.8-1.7s-0.3-1.3-0.8-1.7s-1.2-0.6-2.1-0.6h-4.1v4.6h4.1C452.1-17.9,452.8-18.1,453.3-18.5z M453.7-12.4
		c0.6-0.4,0.9-1.1,0.9-1.8c0-0.8-0.3-1.4-0.9-1.8c-0.6-0.4-1.5-0.7-2.6-0.7H447v5h4.1C452.3-11.8,453.1-12,453.7-12.4z"/>
	<path class="st0" d="M459.1-23.6h1.3v13h-1.3V-23.6z"/>
	<path class="st0" d="M462.7-23.6h9.9v1.2h-4.3v11.8H467v-11.8h-4.3V-23.6z"/>
	<path class="st0" d="M483.3-10.6l-1.5-3.5h-7.2l-1.5,3.5h-1.4l5.9-13h1.3l5.9,13H483.3z M475-15.2h6.2l-3.1-7L475-15.2z"/>
	<path class="st0" d="M496.2-23.6h1.3v13h-1.4l-8-11v11h-1.3v-13h1.4l8.1,11L496.2-23.6L496.2-23.6z"/>
	<path class="st0" d="M499.7-23.6h9.9v1.2h-4.3v11.8H504v-11.8h-4.3V-23.6z"/>
	<path class="st0" d="M517.3-22.3c-0.6-0.2-1.2-0.3-1.8-0.3c-0.9,0-1.6,0.2-2.1,0.5c-0.5,0.4-0.8,0.8-0.8,1.4c0,0.5,0.1,1,0.4,1.3
		s0.7,0.6,1.1,0.8c0.4,0.2,1,0.4,1.8,0.6c0.9,0.3,1.6,0.5,2.1,0.8s1,0.6,1.4,1.1c0.4,0.5,0.6,1.1,0.6,1.9c0,0.7-0.2,1.3-0.6,1.8
		c-0.4,0.5-0.9,0.9-1.6,1.2s-1.5,0.4-2.4,0.4c-0.9,0-1.8-0.2-2.6-0.5c-0.9-0.4-1.6-0.8-2.2-1.4l0.6-1.1c0.6,0.6,1.3,1,2,1.3
		c0.8,0.3,1.5,0.5,2.3,0.5c1,0,1.8-0.2,2.4-0.6c0.6-0.4,0.9-0.9,0.9-1.6c0-0.5-0.1-1-0.4-1.3c-0.3-0.3-0.7-0.6-1.1-0.8
		c-0.4-0.2-1-0.4-1.8-0.7c-0.9-0.3-1.6-0.5-2.1-0.8c-0.5-0.2-1-0.6-1.4-1.1s-0.6-1.1-0.6-1.9c0-0.7,0.2-1.2,0.6-1.7s0.9-0.9,1.6-1.1
		c0.7-0.3,1.4-0.4,2.3-0.4c0.7,0,1.4,0.1,2.1,0.3c0.7,0.2,1.3,0.5,1.9,0.8l-0.6,1.1C518.5-21.8,518-22.1,517.3-22.3z"/>
	<path class="st0" d="M532-25.9h1.1l-5.8,17.6h-1.1L532-25.9z"/>
	<path class="st0" d="M550-10.6h-1.6l-4.9-6.3l-2.6,2.9v3.5h-1.3v-13h1.3v7.9l7.2-7.9h1.6l-5.2,5.7L550-10.6z"/>
	<path class="st0" d="M552.5-23.6h1.6l5.1,9.8l5-9.8h1.6v13h-1.2v-11.2l-5.1,9.8h-0.7l-5.1-9.8v11.2h-1.2V-23.6L552.5-23.6z"/>
	<path class="st0" d="M577.8-11.8v1.2h-9.2v-1.1l5.1-5.4c0.6-0.6,1.1-1.2,1.4-1.8c0.3-0.6,0.5-1.1,0.5-1.5c0-0.7-0.3-1.2-0.8-1.6
		s-1.2-0.6-2.1-0.6c-0.6,0-1.3,0.1-1.9,0.4c-0.7,0.3-1.3,0.7-1.8,1.2l-0.6-0.9c0.6-0.6,1.3-1,2.1-1.3s1.5-0.5,2.3-0.5
		c1.2,0,2.2,0.3,3,0.9c0.7,0.6,1.1,1.3,1.1,2.3c0,0.6-0.2,1.2-0.6,2c-0.4,0.7-1,1.5-1.8,2.3l-4.4,4.6h7.7V-11.8z"/>
</g>
<g>
	<line class="st13" x1="398.8" y1="-2.2" x2="399.8" y2="-2.2"/>
	<polyline class="st17" points="401.6,-2.2 646.9,-2.2 697.7,38.3 	"/>
	<line class="st13" x1="698.4" y1="38.9" x2="699.1" y2="39.4"/>
</g>
<g>
	<line class="st13" x1="823.3" y1="-52.1" x2="822.7" y2="-52.8"/>
	<line class="st18" x1="821.4" y1="-54.1" x2="766.7" y2="-111.3"/>
	<polyline class="st13" points="766.1,-111.9 765.4,-112.6 764.5,-112.6 	"/>
	<line class="st19" x1="762.6" y1="-112.6" x2="634.7" y2="-112.6"/>
	<line class="st13" x1="633.8" y1="-112.6" x2="632.8" y2="-112.6"/>
</g>
<g>
	<line class="st13" x1="982.8" y1="-132.9" x2="981.9" y2="-132.9"/>
	<line class="st20" x1="980.1" y1="-132.9" x2="886.2" y2="-132.9"/>
	<polyline class="st13" points="885.3,-132.9 884.3,-132.9 884,-132.1 	"/>
	<line class="st21" x1="883.4" y1="-130.3" x2="862.9" y2="-70.8"/>
	<line class="st13" x1="862.6" y1="-69.9" x2="862.3" y2="-69"/>
</g>
<g>
	<line class="st13" x1="1045.1" y1="-49.8" x2="1044.2" y2="-49.8"/>
	<polyline class="st22" points="1042.3,-49.8 991.1,-49.8 926.9,-10.3 	"/>
	<line class="st13" x1="926.1" y1="-9.9" x2="925.3" y2="-9.4"/>
</g>
<g>
	<line class="st13" x1="898.8" y1="91.1" x2="899" y2="92"/>
	<line class="st23" x1="899.4" y1="93.9" x2="914.6" y2="159.8"/>
	<polyline class="st13" points="914.9,160.8 915.1,161.7 916,161.7 	"/>
	<line class="st24" x1="917.9" y1="161.7" x2="1177.4" y2="161.7"/>
	<line class="st13" x1="1178.3" y1="161.7" x2="1179.3" y2="161.7"/>
</g>
<g>
	<line class="st13" x1="926.2" y1="20.6" x2="926.9" y2="21.1"/>
	<polyline class="st25" points="928.4,22.2 972.3,52.8 1161.5,52.8 	"/>
	<line class="st13" x1="1162.4" y1="52.8" x2="1163.4" y2="52.8"/>
</g>
<g>
	<path class="st0" d="M928.3,125.5h9.9v1.8l-5.3,11h-2.6l5.1-10.7h-4.9l0,1.8h-2.2V125.5z"/>
	<path class="st0" d="M947.1,130.7c0.7,0.3,1.3,0.8,1.7,1.4c0.4,0.6,0.6,1.3,0.6,2c0,0.9-0.2,1.6-0.6,2.3c-0.4,0.7-1,1.2-1.8,1.5
		c-0.8,0.4-1.6,0.5-2.6,0.5c-0.8,0-1.6-0.1-2.5-0.4c-0.9-0.3-1.6-0.6-2.3-1.1l1-1.9c0.6,0.4,1.1,0.8,1.8,1c0.6,0.2,1.2,0.4,1.9,0.4
		c0.8,0,1.4-0.2,1.9-0.6s0.7-0.9,0.7-1.5c0-0.6-0.2-1.1-0.7-1.4c-0.5-0.3-1.2-0.5-2.1-0.5c-0.4,0-1,0-1.7,0c-0.7,0-1.3,0.1-1.7,0.1
		v-7h8.3v2.1h-6v2.5h1.7C945.5,130.2,946.3,130.4,947.1,130.7z"/>
	<path class="st0" d="M961.1,126.5c0.6,0.7,0.9,1.6,0.9,2.8c0,1.2-0.3,2.1-0.9,2.8c-0.6,0.7-1.5,1-2.5,1c-1.1,0-1.9-0.3-2.5-1
		c-0.6-0.7-0.9-1.6-0.9-2.8c0-1.2,0.3-2.1,0.9-2.8s1.4-1,2.5-1C959.7,125.5,960.5,125.8,961.1,126.5z M957.2,127.5
		c-0.3,0.4-0.5,1-0.5,1.8c0,0.8,0.2,1.4,0.5,1.8c0.3,0.4,0.8,0.7,1.4,0.7c0.6,0,1.1-0.2,1.4-0.7c0.3-0.4,0.5-1,0.5-1.8
		c0-0.8-0.2-1.4-0.5-1.8c-0.3-0.4-0.8-0.6-1.4-0.6C958,126.9,957.6,127.1,957.2,127.5z M967.2,125.5h1.8l-9.4,12.8h-1.8L967.2,125.5
		z M970.9,131.8c0.6,0.7,0.9,1.6,0.9,2.8c0,1.2-0.3,2.1-0.9,2.8c-0.6,0.7-1.5,1-2.5,1c-1.1,0-1.9-0.3-2.5-1
		c-0.6-0.7-0.9-1.6-0.9-2.8c0-1.2,0.3-2.1,0.9-2.8c0.6-0.7,1.4-1,2.5-1C969.4,130.7,970.3,131.1,970.9,131.8z M967,132.8
		c-0.3,0.4-0.5,1-0.5,1.8c0,0.8,0.2,1.4,0.5,1.8c0.3,0.4,0.8,0.7,1.4,0.7c0.6,0,1.1-0.2,1.4-0.7c0.3-0.4,0.5-1,0.5-1.8
		c0-0.8-0.2-1.4-0.5-1.8c-0.3-0.4-0.8-0.6-1.4-0.6C967.8,132.1,967.3,132.3,967,132.8z"/>
	<path d="M987.4,126.4c1,0.6,1.8,1.3,2.4,2.3c0.6,1,0.9,2.1,0.9,3.3s-0.3,2.3-0.9,3.2c-0.6,1-1.4,1.7-2.4,2.3
		c-1,0.6-2.1,0.8-3.4,0.8h-5.1v-12.8h5.2C985.3,125.6,986.4,125.8,987.4,126.4z M986.8,136.6c0.8-0.5,1.4-1.1,1.9-1.9
		c0.5-0.8,0.7-1.7,0.7-2.7s-0.2-1.9-0.7-2.7c-0.5-0.8-1.1-1.4-1.9-1.9c-0.8-0.5-1.7-0.7-2.7-0.7h-3.9v10.5h3.9
		C985.1,137.2,986,137,986.8,136.6z"/>
	<path d="M993.5,125.6h8.6v1.1h-7.3v4.6h6.5v1.1h-6.5v4.8h7.6v1.1h-8.8V125.6z"/>
	<path d="M1010.4,125.6h1.3v11.7h5.6v1.1h-6.9V125.6z"/>
	<path d="M1029.6,138.4l-1.5-3.4h-7.1l-1.5,3.4h-1.4l5.8-12.8h1.3l5.8,12.8H1029.6z M1021.4,133.8h6.1l-3.1-6.9L1021.4,133.8z"/>
	<path d="M1046.5,126.7c0.9,0.7,1.3,1.8,1.3,3.1c0,1.4-0.4,2.5-1.3,3.3c-0.9,0.8-2.1,1.2-3.7,1.2h-3.5v4.1h-1.3v-12.8h4.7
		C1044.4,125.6,1045.6,125.9,1046.5,126.7z M1045.6,132.3c0.7-0.6,1-1.4,1-2.4c0-1-0.3-1.8-1-2.3c-0.7-0.5-1.6-0.8-2.8-0.8h-3.4v6.4
		h3.4C1044,133.1,1044.9,132.8,1045.6,132.3z"/>
	<path d="M1059.1,126.3c1,0.6,1.8,1.4,2.4,2.4c0.6,1,0.9,2.1,0.9,3.3c0,1.2-0.3,2.3-0.9,3.3c-0.6,1-1.4,1.8-2.4,2.4
		c-1,0.6-2.1,0.9-3.4,0.9s-2.3-0.3-3.4-0.9c-1-0.6-1.8-1.4-2.4-2.4c-0.6-1-0.9-2.1-0.9-3.3c0-1.2,0.3-2.3,0.9-3.3
		c0.6-1,1.4-1.8,2.4-2.4c1-0.6,2.1-0.9,3.4-0.9S1058.1,125.7,1059.1,126.3z M1053.1,127.3c-0.8,0.5-1.5,1.1-2,1.9
		c-0.5,0.8-0.7,1.7-0.7,2.7c0,1,0.2,1.9,0.7,2.7c0.5,0.8,1.1,1.5,2,2c0.8,0.5,1.7,0.7,2.7,0.7c1,0,1.9-0.2,2.7-0.7
		c0.8-0.5,1.5-1.1,2-2c0.5-0.8,0.7-1.7,0.7-2.7c0-1-0.2-1.9-0.7-2.7c-0.5-0.8-1.1-1.5-2-1.9c-0.8-0.5-1.7-0.7-2.7-0.7
		C1054.8,126.6,1053.9,126.8,1053.1,127.3z"/>
	<path d="M1073.7,126.7c0.9,0.7,1.3,1.8,1.3,3.1c0,1.4-0.4,2.5-1.3,3.3c-0.9,0.8-2.1,1.2-3.7,1.2h-3.5v4.1h-1.3v-12.8h4.7
		C1071.6,125.6,1072.8,125.9,1073.7,126.7z M1072.8,132.3c0.7-0.6,1-1.4,1-2.4c0-1-0.3-1.8-1-2.3c-0.7-0.5-1.6-0.8-2.8-0.8h-3.4v6.4
		h3.4C1071.2,133.1,1072.1,132.8,1072.8,132.3z"/>
	<path d="M1079.6,136.3c0.7,0.7,1.7,1.1,3,1.1c1.3,0,2.3-0.4,3-1.1c0.7-0.7,1.1-1.8,1.1-3.1v-7.6h1.3v7.6c0,1.7-0.5,3-1.4,3.9
		c-0.9,0.9-2.2,1.4-3.9,1.4c-1.7,0-3-0.5-3.9-1.4s-1.4-2.2-1.4-3.9v-7.6h1.3v7.6C1078.5,134.5,1078.8,135.5,1079.6,136.3z"/>
	<path d="M1091.6,125.6h1.3v11.7h5.6v1.1h-6.9V125.6z"/>
	<path d="M1110.7,138.4l-1.5-3.4h-7.1l-1.5,3.4h-1.4l5.8-12.8h1.3l5.8,12.8H1110.7z M1102.6,133.8h6.1l-3.1-6.9L1102.6,133.8z"/>
	<path d="M1111.2,125.5h9.7v1.2h-4.2v11.7h-1.3v-11.7h-4.2V125.5z"/>
	<path d="M1123.1,125.6h1.3v12.8h-1.3V125.6z"/>
	<path d="M1137.3,126.3c1,0.6,1.8,1.4,2.4,2.4c0.6,1,0.9,2.1,0.9,3.3c0,1.2-0.3,2.3-0.9,3.3c-0.6,1-1.4,1.8-2.4,2.4
		c-1,0.6-2.1,0.9-3.4,0.9c-1.2,0-2.3-0.3-3.4-0.9s-1.8-1.4-2.4-2.4c-0.6-1-0.9-2.1-0.9-3.3c0-1.2,0.3-2.3,0.9-3.3
		c0.6-1,1.4-1.8,2.4-2.4c1-0.6,2.1-0.9,3.4-0.9C1135.1,125.5,1136.2,125.7,1137.3,126.3z M1131.2,127.3c-0.8,0.5-1.5,1.1-2,1.9
		c-0.5,0.8-0.7,1.7-0.7,2.7c0,1,0.2,1.9,0.7,2.7c0.5,0.8,1.1,1.5,2,2c0.8,0.5,1.7,0.7,2.7,0.7c1,0,1.9-0.2,2.7-0.7
		c0.8-0.5,1.5-1.1,2-2c0.5-0.8,0.7-1.7,0.7-2.7c0-1-0.2-1.9-0.7-2.7c-0.5-0.8-1.1-1.5-2-1.9c-0.8-0.5-1.7-0.7-2.7-0.7
		C1132.9,126.6,1132,126.8,1131.2,127.3z"/>
	<path d="M1152.7,125.6h1.2v12.8h-1.3l-7.9-10.9v10.9h-1.3v-12.8h1.3l8,10.9V125.6z"/>
	<path class="st0" d="M939.2,156.7l-1.1-2.7h-6.3l-1.1,2.7h-2.5l5.6-12.8h2.5l5.6,12.8H939.2z M932.7,151.9h4.5l-2.2-5.4
		L932.7,151.9z"/>
	<path class="st0" d="M951.8,150.3h2.1v4.9c-0.7,0.5-1.5,0.9-2.4,1.2s-1.8,0.5-2.7,0.5c-1.3,0-2.4-0.3-3.4-0.9
		c-1-0.6-1.8-1.4-2.4-2.4c-0.6-1-0.9-2.1-0.9-3.3c0-1.2,0.3-2.3,0.9-3.3c0.6-1,1.4-1.8,2.5-2.4c1.1-0.6,2.2-0.9,3.5-0.9
		c0.9,0,1.8,0.2,2.7,0.5c0.9,0.3,1.7,0.8,2.3,1.4l-1.4,1.8c-0.5-0.5-1.1-0.8-1.7-1.1c-0.6-0.3-1.3-0.4-1.9-0.4
		c-0.8,0-1.5,0.2-2.2,0.6c-0.7,0.4-1.2,0.9-1.6,1.6c-0.4,0.7-0.6,1.4-0.6,2.2c0,0.8,0.2,1.5,0.6,2.2c0.4,0.7,0.9,1.2,1.6,1.6
		c0.7,0.4,1.4,0.6,2.2,0.6c0.4,0,0.9-0.1,1.4-0.2c0.5-0.1,0.9-0.3,1.4-0.6V150.3z"/>
	<path class="st0" d="M956.8,143.9h9.4v2.1h-7v3.2h6.2v2.1h-6.2v3.2h7.2v2.1h-9.6V143.9z M962.4,140l2.3,0.9l-2.3,1.9l-1.9-0.2
		L962.4,140z"/>
	<path class="st0" d="M975,146.3c-0.7-0.2-1.3-0.3-1.8-0.3c-0.6,0-1.1,0.1-1.4,0.3c-0.3,0.2-0.5,0.5-0.5,0.9c0,0.4,0.1,0.7,0.4,0.9
		c0.2,0.2,0.5,0.4,0.9,0.6c0.4,0.2,0.9,0.3,1.5,0.5c0.9,0.3,1.6,0.5,2.1,0.8c0.6,0.3,1,0.6,1.4,1.1c0.4,0.5,0.6,1.2,0.6,2
		c0,0.8-0.2,1.5-0.6,2s-1,1-1.7,1.3c-0.7,0.3-1.6,0.5-2.5,0.5c-1,0-2-0.2-2.9-0.6c-1-0.4-1.8-0.9-2.5-1.5l1-2.1
		c0.6,0.6,1.4,1.1,2.2,1.4c0.8,0.3,1.6,0.5,2.3,0.5c0.7,0,1.2-0.1,1.6-0.4c0.4-0.3,0.6-0.6,0.6-1.1c0-0.4-0.1-0.7-0.4-0.9
		c-0.2-0.2-0.5-0.4-0.9-0.6s-0.9-0.3-1.5-0.5c-0.9-0.3-1.6-0.5-2.1-0.8c-0.6-0.2-1-0.6-1.4-1.1c-0.4-0.5-0.6-1.1-0.6-2
		c0-0.7,0.2-1.4,0.6-2s1-1,1.7-1.3c0.7-0.3,1.6-0.5,2.5-0.5c0.8,0,1.7,0.1,2.5,0.4c0.8,0.2,1.5,0.6,2.2,1l-1,2.1
		C976.3,146.8,975.7,146.5,975,146.3z"/>
	<path class="st0" d="M993.7,144.7c1,0.5,1.8,1.3,2.4,2.3c0.6,1,0.9,2.1,0.9,3.3c0,1.2-0.3,2.3-0.9,3.3c-0.6,1-1.4,1.7-2.4,2.3
		c-1,0.6-2.2,0.8-3.5,0.8h-5.2v-12.8h5.3C991.6,143.9,992.7,144.2,993.7,144.7z M992.5,154c0.6-0.4,1.1-0.9,1.5-1.5
		c0.4-0.6,0.5-1.4,0.5-2.2s-0.2-1.6-0.6-2.2c-0.4-0.7-0.9-1.2-1.5-1.5c-0.6-0.4-1.4-0.5-2.2-0.5h-2.8v8.5h2.9
		C991.1,154.6,991.8,154.4,992.5,154z"/>
	<path class="st0" d="M999.1,143.9h9.4v2.1h-7v3.2h6.2v2.1h-6.2v3.2h7.2v2.1h-9.6V143.9z"/>
	<path class="st0" d="M1015.7,143.9h2.8l4.3,8.3l4.2-8.3h2.8v12.8h-2.3v-9.2l-4,7.9h-1.6l-4-7.9v9.2h-2.2V143.9z"/>
	<path class="st0" d="M1042.3,144.6c1,0.6,1.9,1.4,2.5,2.4c0.6,1,0.9,2.1,0.9,3.3c0,1.2-0.3,2.3-0.9,3.3c-0.6,1-1.4,1.8-2.5,2.4
		c-1,0.6-2.2,0.9-3.5,0.9c-1.3,0-2.4-0.3-3.5-0.9c-1-0.6-1.9-1.4-2.5-2.4c-0.6-1-0.9-2.1-0.9-3.3c0-1.2,0.3-2.3,0.9-3.3
		c0.6-1,1.4-1.8,2.5-2.4c1-0.6,2.2-0.9,3.5-0.9C1040.1,143.7,1041.2,144,1042.3,144.6z M1036.7,146.5c-0.7,0.4-1.2,0.9-1.6,1.6
		c-0.4,0.7-0.6,1.4-0.6,2.2c0,0.8,0.2,1.5,0.6,2.2c0.4,0.7,0.9,1.2,1.6,1.6c0.7,0.4,1.4,0.6,2.2,0.6c0.8,0,1.5-0.2,2.1-0.6
		c0.7-0.4,1.2-0.9,1.6-1.6c0.4-0.7,0.6-1.4,0.6-2.2c0-0.8-0.2-1.5-0.6-2.2c-0.4-0.7-0.9-1.2-1.6-1.6c-0.7-0.4-1.4-0.6-2.1-0.6
		C1038.1,145.9,1037.3,146.1,1036.7,146.5z"/>
	<path class="st0" d="M1047.8,143.9h2.5v12.8h-2.5V143.9z"/>
	<path class="st0" d="M1062.4,143.9h2.4v12.8h-2.3l-6.6-8.8v8.8h-2.4v-12.8h2.3l6.6,8.9V143.9z"/>
	<path class="st0" d="M1074,146.3c-0.7-0.2-1.3-0.3-1.8-0.3c-0.6,0-1.1,0.1-1.4,0.3c-0.3,0.2-0.5,0.5-0.5,0.9c0,0.4,0.1,0.7,0.4,0.9
		c0.2,0.2,0.5,0.4,0.9,0.6c0.4,0.2,0.9,0.3,1.5,0.5c0.9,0.3,1.6,0.5,2.1,0.8c0.6,0.3,1,0.6,1.4,1.1c0.4,0.5,0.6,1.2,0.6,2
		c0,0.8-0.2,1.5-0.6,2c-0.4,0.6-1,1-1.7,1.3c-0.7,0.3-1.6,0.5-2.5,0.5c-1,0-2-0.2-2.9-0.6c-1-0.4-1.8-0.9-2.5-1.5l1-2.1
		c0.6,0.6,1.4,1.1,2.2,1.4c0.8,0.3,1.6,0.5,2.3,0.5c0.7,0,1.2-0.1,1.6-0.4c0.4-0.3,0.6-0.6,0.6-1.1c0-0.4-0.1-0.7-0.4-0.9
		c-0.2-0.2-0.5-0.4-0.9-0.6c-0.4-0.1-0.9-0.3-1.5-0.5c-0.9-0.3-1.6-0.5-2.1-0.8c-0.6-0.2-1-0.6-1.4-1.1c-0.4-0.5-0.6-1.1-0.6-2
		c0-0.7,0.2-1.4,0.6-2s1-1,1.7-1.3c0.7-0.3,1.6-0.5,2.5-0.5c0.8,0,1.7,0.1,2.5,0.4c0.8,0.2,1.5,0.6,2.2,1l-1,2.1
		C1075.3,146.8,1074.7,146.5,1074,146.3z"/>
	<path class="st0" d="M1092.7,144.7c1,0.5,1.8,1.3,2.4,2.3c0.6,1,0.9,2.1,0.9,3.3c0,1.2-0.3,2.3-0.9,3.3c-0.6,1-1.4,1.7-2.4,2.3
		c-1,0.6-2.2,0.8-3.5,0.8h-5.2v-12.8h5.3C1090.6,143.9,1091.7,144.2,1092.7,144.7z M1091.4,154c0.6-0.4,1.1-0.9,1.5-1.5
		c0.4-0.6,0.5-1.4,0.5-2.2s-0.2-1.6-0.6-2.2c-0.4-0.7-0.9-1.2-1.5-1.5c-0.6-0.4-1.4-0.5-2.2-0.5h-2.8v8.5h2.9
		C1090.1,154.6,1090.8,154.4,1091.4,154z"/>
	<path class="st0" d="M1098.1,143.9h9.4v2.1h-7v3.2h6.2v2.1h-6.2v3.2h7.2v2.1h-9.6V143.9z"/>
	<path class="st0" d="M1123.4,154.6v2.1h-9.5v-1.8l4.8-5c0.5-0.5,0.8-0.9,1.1-1.4c0.3-0.5,0.4-0.8,0.4-1.2c0-0.5-0.2-0.8-0.6-1.1
		c-0.4-0.3-0.9-0.4-1.5-0.4c-0.6,0-1.2,0.1-1.8,0.4c-0.6,0.3-1.2,0.7-1.8,1.2l-1-1.9c0.8-0.6,1.6-1,2.4-1.4c0.8-0.3,1.7-0.5,2.5-0.5
		c0.8,0,1.6,0.1,2.2,0.4c0.6,0.3,1.2,0.7,1.5,1.1c0.4,0.5,0.5,1.1,0.5,1.7c0,0.6-0.2,1.3-0.6,2c-0.4,0.7-1,1.4-1.8,2.3l-3.3,3.3
		H1123.4z"/>
	<path class="st0" d="M1132.3,149.1c0.7,0.3,1.3,0.8,1.7,1.4c0.4,0.6,0.6,1.3,0.6,2c0,0.9-0.2,1.6-0.6,2.3c-0.4,0.7-1,1.2-1.8,1.5
		c-0.8,0.4-1.6,0.5-2.6,0.5c-0.8,0-1.6-0.1-2.5-0.4c-0.9-0.3-1.6-0.6-2.3-1.1l1-1.9c0.6,0.4,1.1,0.8,1.8,1c0.6,0.2,1.2,0.4,1.9,0.4
		c0.8,0,1.4-0.2,1.9-0.6c0.5-0.4,0.7-0.9,0.7-1.5c0-0.6-0.2-1.1-0.7-1.4c-0.5-0.3-1.2-0.5-2.1-0.5c-0.4,0-1,0-1.7,0
		c-0.7,0-1.3,0.1-1.7,0.1v-7h8.3v2.1h-6v2.5h1.7C1130.7,148.6,1131.6,148.7,1132.3,149.1z"/>
	<path class="st0" d="M1150.9,156.7l-1.1-2.7h-6.3l-1.1,2.7h-2.5l5.6-12.8h2.5l5.6,12.8H1150.9z M1144.4,151.9h4.5l-2.2-5.4
		L1144.4,151.9z"/>
	<path class="st0" d="M1164.1,143.9h2.4v12.8h-2.3l-6.6-8.8v8.8h-2.4v-12.8h2.3l6.6,8.9V143.9z"/>
	<path class="st0" d="M1175.7,146.3c-0.7-0.2-1.3-0.3-1.8-0.3c-0.6,0-1.1,0.1-1.4,0.3c-0.3,0.2-0.5,0.5-0.5,0.9
		c0,0.4,0.1,0.7,0.4,0.9c0.2,0.2,0.5,0.4,0.9,0.6c0.4,0.2,0.9,0.3,1.5,0.5c0.9,0.3,1.6,0.5,2.1,0.8c0.6,0.3,1,0.6,1.4,1.1
		c0.4,0.5,0.6,1.2,0.6,2c0,0.8-0.2,1.5-0.6,2c-0.4,0.6-1,1-1.7,1.3c-0.7,0.3-1.6,0.5-2.5,0.5c-1,0-2-0.2-2.9-0.6
		c-1-0.4-1.8-0.9-2.5-1.5l1-2.1c0.6,0.6,1.4,1.1,2.2,1.4c0.8,0.3,1.6,0.5,2.3,0.5c0.7,0,1.2-0.1,1.6-0.4c0.4-0.3,0.6-0.6,0.6-1.1
		c0-0.4-0.1-0.7-0.4-0.9c-0.2-0.2-0.5-0.4-0.9-0.6s-0.9-0.3-1.5-0.5c-0.9-0.3-1.6-0.5-2.1-0.8c-0.6-0.2-1-0.6-1.4-1.1
		c-0.4-0.5-0.6-1.1-0.6-2c0-0.7,0.2-1.4,0.6-2s1-1,1.7-1.3c0.7-0.3,1.6-0.5,2.5-0.5c0.8,0,1.7,0.1,2.5,0.4c0.8,0.2,1.5,0.6,2.2,1
		l-1,2.1C1177,146.8,1176.3,146.5,1175.7,146.3z"/>
</g>
</svg>
